%TF.GenerationSoftware,KiCad,Pcbnew,9.0.2*%
%TF.CreationDate,2026-04-27T15:32:34-04:00*%
%TF.ProjectId,MP3-Player,4d50332d-506c-4617-9965-722e6b696361,rev?*%
%TF.SameCoordinates,Original*%
%TF.FileFunction,Legend,Top*%
%TF.FilePolarity,Positive*%
%FSLAX46Y46*%
G04 Gerber Fmt 4.6, Leading zero omitted, Abs format (unit mm)*
G04 Created by KiCad (PCBNEW 9.0.2) date 2026-04-27 15:32:34*
%MOMM*%
%LPD*%
G01*
G04 APERTURE LIST*
%ADD10C,0.150000*%
%ADD11C,0.125000*%
%ADD12C,0.200000*%
%ADD13C,0.100000*%
%ADD14C,0.300000*%
%ADD15C,0.120000*%
%ADD16C,0.000000*%
G04 APERTURE END LIST*
D10*
X107250000Y-113575000D02*
X109250000Y-113575000D01*
X102000000Y-106250000D02*
X102750000Y-105500000D01*
X108500000Y-102000000D02*
X106500000Y-102000000D01*
X113500000Y-107075000D02*
X113500000Y-109325000D01*
X102000000Y-108500000D02*
X102000000Y-106250000D01*
X136950000Y-110150000D02*
X136200000Y-109400000D01*
X106500000Y-102000000D02*
X106250000Y-102000000D01*
X113750000Y-140750000D02*
X113750000Y-140500000D01*
X136250000Y-140500000D02*
X136900000Y-139850000D01*
X106250000Y-102000000D02*
X106125000Y-102125000D01*
X113150000Y-139900000D02*
X113750000Y-140500000D01*
X136250000Y-142750000D02*
X136250000Y-140500000D01*
X136200000Y-107400000D02*
X136200000Y-109400000D01*
X142700000Y-113650000D02*
X140450000Y-113650000D01*
X139850000Y-136900000D02*
X140500000Y-136250000D01*
X140450000Y-113650000D02*
X139850000Y-113050000D01*
X113750000Y-142750000D02*
X113750000Y-140750000D01*
X113125000Y-144600000D02*
X118575000Y-144600000D01*
X118575000Y-148200000D01*
X113125000Y-148200000D01*
X113125000Y-144600000D01*
X107250000Y-136250000D02*
X109500000Y-136250000D01*
X142500000Y-136250000D02*
X140500000Y-136250000D01*
X109950000Y-112900000D02*
X109250000Y-113575000D01*
X105375000Y-102875000D02*
X106125000Y-102125000D01*
X109500000Y-136250000D02*
X109950000Y-136700000D01*
X113500000Y-109325000D02*
X113000000Y-109850000D01*
D11*
X113725000Y-145061175D02*
X113820238Y-145061175D01*
X113820238Y-145061175D02*
X113915476Y-145108794D01*
X113915476Y-145108794D02*
X113963095Y-145156413D01*
X113963095Y-145156413D02*
X114010714Y-145251651D01*
X114010714Y-145251651D02*
X114058333Y-145442127D01*
X114058333Y-145442127D02*
X114058333Y-145680222D01*
X114058333Y-145680222D02*
X114010714Y-145870698D01*
X114010714Y-145870698D02*
X113963095Y-145965936D01*
X113963095Y-145965936D02*
X113915476Y-146013556D01*
X113915476Y-146013556D02*
X113820238Y-146061175D01*
X113820238Y-146061175D02*
X113725000Y-146061175D01*
X113725000Y-146061175D02*
X113629762Y-146013556D01*
X113629762Y-146013556D02*
X113582143Y-145965936D01*
X113582143Y-145965936D02*
X113534524Y-145870698D01*
X113534524Y-145870698D02*
X113486905Y-145680222D01*
X113486905Y-145680222D02*
X113486905Y-145442127D01*
X113486905Y-145442127D02*
X113534524Y-145251651D01*
X113534524Y-145251651D02*
X113582143Y-145156413D01*
X113582143Y-145156413D02*
X113629762Y-145108794D01*
X113629762Y-145108794D02*
X113725000Y-145061175D01*
X114915476Y-145394508D02*
X114915476Y-146061175D01*
X114677381Y-145013556D02*
X114439286Y-145727841D01*
X114439286Y-145727841D02*
X115058333Y-145727841D01*
X116153571Y-145013556D02*
X115296429Y-146299270D01*
X116439286Y-145156413D02*
X116486905Y-145108794D01*
X116486905Y-145108794D02*
X116582143Y-145061175D01*
X116582143Y-145061175D02*
X116820238Y-145061175D01*
X116820238Y-145061175D02*
X116915476Y-145108794D01*
X116915476Y-145108794D02*
X116963095Y-145156413D01*
X116963095Y-145156413D02*
X117010714Y-145251651D01*
X117010714Y-145251651D02*
X117010714Y-145346889D01*
X117010714Y-145346889D02*
X116963095Y-145489746D01*
X116963095Y-145489746D02*
X116391667Y-146061175D01*
X116391667Y-146061175D02*
X117010714Y-146061175D01*
X117867857Y-145061175D02*
X117677381Y-145061175D01*
X117677381Y-145061175D02*
X117582143Y-145108794D01*
X117582143Y-145108794D02*
X117534524Y-145156413D01*
X117534524Y-145156413D02*
X117439286Y-145299270D01*
X117439286Y-145299270D02*
X117391667Y-145489746D01*
X117391667Y-145489746D02*
X117391667Y-145870698D01*
X117391667Y-145870698D02*
X117439286Y-145965936D01*
X117439286Y-145965936D02*
X117486905Y-146013556D01*
X117486905Y-146013556D02*
X117582143Y-146061175D01*
X117582143Y-146061175D02*
X117772619Y-146061175D01*
X117772619Y-146061175D02*
X117867857Y-146013556D01*
X117867857Y-146013556D02*
X117915476Y-145965936D01*
X117915476Y-145965936D02*
X117963095Y-145870698D01*
X117963095Y-145870698D02*
X117963095Y-145632603D01*
X117963095Y-145632603D02*
X117915476Y-145537365D01*
X117915476Y-145537365D02*
X117867857Y-145489746D01*
X117867857Y-145489746D02*
X117772619Y-145442127D01*
X117772619Y-145442127D02*
X117582143Y-145442127D01*
X117582143Y-145442127D02*
X117486905Y-145489746D01*
X117486905Y-145489746D02*
X117439286Y-145537365D01*
X117439286Y-145537365D02*
X117391667Y-145632603D01*
X114105952Y-147671119D02*
X113772619Y-147194928D01*
X113534524Y-147671119D02*
X113534524Y-146671119D01*
X113534524Y-146671119D02*
X113915476Y-146671119D01*
X113915476Y-146671119D02*
X114010714Y-146718738D01*
X114010714Y-146718738D02*
X114058333Y-146766357D01*
X114058333Y-146766357D02*
X114105952Y-146861595D01*
X114105952Y-146861595D02*
X114105952Y-147004452D01*
X114105952Y-147004452D02*
X114058333Y-147099690D01*
X114058333Y-147099690D02*
X114010714Y-147147309D01*
X114010714Y-147147309D02*
X113915476Y-147194928D01*
X113915476Y-147194928D02*
X113534524Y-147194928D01*
X114534524Y-147147309D02*
X114867857Y-147147309D01*
X115010714Y-147671119D02*
X114534524Y-147671119D01*
X114534524Y-147671119D02*
X114534524Y-146671119D01*
X114534524Y-146671119D02*
X115010714Y-146671119D01*
X115296429Y-146671119D02*
X115629762Y-147671119D01*
X115629762Y-147671119D02*
X115963095Y-146671119D01*
X116296429Y-147575880D02*
X116344048Y-147623500D01*
X116344048Y-147623500D02*
X116296429Y-147671119D01*
X116296429Y-147671119D02*
X116248810Y-147623500D01*
X116248810Y-147623500D02*
X116296429Y-147575880D01*
X116296429Y-147575880D02*
X116296429Y-147671119D01*
X117486905Y-147385404D02*
X117963095Y-147385404D01*
X117391667Y-147671119D02*
X117725000Y-146671119D01*
X117725000Y-146671119D02*
X118058333Y-147671119D01*
D12*
G36*
X137645129Y-139305632D02*
G01*
X137712761Y-139373264D01*
X137733836Y-139436487D01*
X137733836Y-139471376D01*
X137712761Y-139534600D01*
X137530789Y-139716571D01*
X137301822Y-139487603D01*
X137483793Y-139305632D01*
X137547017Y-139284558D01*
X137581907Y-139284558D01*
X137645129Y-139305632D01*
G37*
G36*
X139079233Y-138437502D02*
G01*
X138938727Y-138578008D01*
X138798222Y-138296997D01*
X139079233Y-138437502D01*
G37*
G36*
X140422054Y-137938721D02*
G01*
X137867508Y-140493267D01*
X136861844Y-139487604D01*
X136881353Y-139468095D01*
X137062322Y-139468095D01*
X137062322Y-139507113D01*
X137077254Y-139543161D01*
X137089690Y-139558315D01*
X137796797Y-140265421D01*
X137811950Y-140277858D01*
X137847999Y-140292789D01*
X137887017Y-140292789D01*
X137923065Y-140277858D01*
X137950655Y-140250268D01*
X137965586Y-140214220D01*
X137965586Y-140175202D01*
X137950655Y-140139153D01*
X137938218Y-140124000D01*
X137672211Y-139857993D01*
X137870874Y-139659330D01*
X137883311Y-139644177D01*
X137884686Y-139640855D01*
X137887040Y-139638142D01*
X137895032Y-139620242D01*
X137928704Y-139519227D01*
X137930903Y-139509554D01*
X137931915Y-139507113D01*
X137932263Y-139503575D01*
X137933051Y-139500112D01*
X137932863Y-139497477D01*
X137933836Y-139487604D01*
X137933836Y-139420260D01*
X137932863Y-139410386D01*
X137933051Y-139407752D01*
X137932263Y-139404288D01*
X137931915Y-139400751D01*
X137930903Y-139398309D01*
X137928704Y-139388637D01*
X137895032Y-139287622D01*
X137887040Y-139269722D01*
X137884686Y-139267008D01*
X137883311Y-139263688D01*
X137870875Y-139248534D01*
X137769860Y-139147519D01*
X137754706Y-139135083D01*
X137751387Y-139133708D01*
X137748672Y-139131353D01*
X137730772Y-139123362D01*
X137629757Y-139089690D01*
X137620084Y-139087490D01*
X137617643Y-139086479D01*
X137614105Y-139086130D01*
X137610642Y-139085343D01*
X137608007Y-139085530D01*
X137598134Y-139084558D01*
X137530790Y-139084558D01*
X137520916Y-139085530D01*
X137518282Y-139085343D01*
X137514818Y-139086130D01*
X137511281Y-139086479D01*
X137508839Y-139087490D01*
X137499167Y-139089690D01*
X137398152Y-139123362D01*
X137380252Y-139131354D01*
X137377538Y-139133707D01*
X137374217Y-139135083D01*
X137359064Y-139147520D01*
X137089690Y-139416893D01*
X137077254Y-139432047D01*
X137062322Y-139468095D01*
X136881353Y-139468095D01*
X137588460Y-138760988D01*
X137769429Y-138760988D01*
X137769429Y-138800006D01*
X137784361Y-138836054D01*
X137796797Y-138851208D01*
X138503904Y-139558315D01*
X138519057Y-139570752D01*
X138555105Y-139585683D01*
X138594123Y-139585683D01*
X138630172Y-139570752D01*
X138630182Y-139570741D01*
X138645325Y-139558315D01*
X138982043Y-139221597D01*
X138994479Y-139206443D01*
X139009410Y-139170395D01*
X139009410Y-139131377D01*
X138997878Y-139103535D01*
X139033512Y-139115414D01*
X139072432Y-139112648D01*
X139107330Y-139095199D01*
X139132895Y-139065722D01*
X139145234Y-139028706D01*
X139142468Y-138989786D01*
X139135462Y-138971477D01*
X139033008Y-138766570D01*
X139267795Y-138531783D01*
X139472703Y-138634238D01*
X139491011Y-138641244D01*
X139529931Y-138644010D01*
X139566947Y-138631671D01*
X139596424Y-138606107D01*
X139613873Y-138571208D01*
X139616639Y-138532288D01*
X139604300Y-138495272D01*
X139578736Y-138465795D01*
X139562146Y-138455352D01*
X138619336Y-137983947D01*
X138601028Y-137976941D01*
X138593900Y-137976434D01*
X138587122Y-137974175D01*
X138574615Y-137975063D01*
X138562108Y-137974175D01*
X138555329Y-137976434D01*
X138548202Y-137976941D01*
X138536983Y-137982550D01*
X138525092Y-137986514D01*
X138519696Y-137991193D01*
X138513303Y-137994390D01*
X138505087Y-138003862D01*
X138495615Y-138012078D01*
X138492418Y-138018471D01*
X138487739Y-138023867D01*
X138483775Y-138035758D01*
X138478166Y-138046977D01*
X138477659Y-138054104D01*
X138475400Y-138060883D01*
X138476288Y-138073390D01*
X138475400Y-138085897D01*
X138477659Y-138092675D01*
X138478166Y-138099803D01*
X138485172Y-138118111D01*
X138956576Y-139060920D01*
X138958745Y-139064365D01*
X138930841Y-139052808D01*
X138891823Y-139052808D01*
X138855775Y-139067739D01*
X138840621Y-139080175D01*
X138574613Y-139346182D01*
X137938219Y-138709786D01*
X137923065Y-138697350D01*
X137887017Y-138682418D01*
X137847999Y-138682418D01*
X137811951Y-138697350D01*
X137784361Y-138724940D01*
X137769429Y-138760988D01*
X137588460Y-138760988D01*
X138648680Y-137700769D01*
X138845028Y-137700769D01*
X138851785Y-137739198D01*
X138872733Y-137772116D01*
X138904683Y-137794512D01*
X138923311Y-137800620D01*
X139500975Y-137928989D01*
X139817102Y-138245115D01*
X139832255Y-138257552D01*
X139868304Y-138272483D01*
X139907322Y-138272483D01*
X139943370Y-138257552D01*
X139970960Y-138229962D01*
X139985891Y-138193914D01*
X139985891Y-138154895D01*
X139970960Y-138118847D01*
X139958523Y-138103694D01*
X139642396Y-137787567D01*
X139514027Y-137209903D01*
X139507919Y-137191275D01*
X139485523Y-137159325D01*
X139452605Y-137138377D01*
X139414176Y-137131620D01*
X139376087Y-137140085D01*
X139344137Y-137162481D01*
X139323189Y-137195399D01*
X139316432Y-137233828D01*
X139318789Y-137253289D01*
X139419386Y-137705979D01*
X138966697Y-137605382D01*
X138947236Y-137603025D01*
X138908807Y-137609782D01*
X138875889Y-137630730D01*
X138853493Y-137662680D01*
X138845028Y-137700769D01*
X138648680Y-137700769D01*
X139416391Y-136933058D01*
X140422054Y-137938721D01*
G37*
G36*
X103445129Y-104755632D02*
G01*
X103512761Y-104823264D01*
X103533836Y-104886487D01*
X103533836Y-104921376D01*
X103512761Y-104984600D01*
X103330789Y-105166571D01*
X103101822Y-104937603D01*
X103283793Y-104755632D01*
X103347017Y-104734558D01*
X103381907Y-104734558D01*
X103445129Y-104755632D01*
G37*
G36*
X104960358Y-103240403D02*
G01*
X105027990Y-103308035D01*
X105049065Y-103371259D01*
X105049065Y-103406147D01*
X105027990Y-103469371D01*
X104846019Y-103651342D01*
X104617051Y-103422374D01*
X104799022Y-103240403D01*
X104862246Y-103219329D01*
X104897135Y-103219329D01*
X104960358Y-103240403D01*
G37*
G36*
X105885337Y-103725403D02*
G01*
X103667490Y-105943250D01*
X102661844Y-104937604D01*
X102681353Y-104918095D01*
X102862322Y-104918095D01*
X102862322Y-104957113D01*
X102877254Y-104993161D01*
X102889690Y-105008315D01*
X103596797Y-105715421D01*
X103611950Y-105727858D01*
X103647999Y-105742789D01*
X103687017Y-105742789D01*
X103723065Y-105727858D01*
X103750655Y-105700268D01*
X103765586Y-105664220D01*
X103765586Y-105625202D01*
X103750655Y-105589153D01*
X103738218Y-105574000D01*
X103472211Y-105307993D01*
X103670874Y-105109330D01*
X103683311Y-105094177D01*
X103684686Y-105090855D01*
X103687040Y-105088142D01*
X103695032Y-105070242D01*
X103728704Y-104969227D01*
X103730903Y-104959554D01*
X103731915Y-104957113D01*
X103732263Y-104953575D01*
X103733051Y-104950112D01*
X103732863Y-104947477D01*
X103733836Y-104937604D01*
X103733836Y-104870260D01*
X103732863Y-104860386D01*
X103733051Y-104857752D01*
X103732263Y-104854288D01*
X103731915Y-104850751D01*
X103730903Y-104848309D01*
X103728704Y-104838637D01*
X103695032Y-104737622D01*
X103687040Y-104719722D01*
X103684686Y-104717008D01*
X103683311Y-104713688D01*
X103670875Y-104698534D01*
X103569860Y-104597519D01*
X103554706Y-104585083D01*
X103551387Y-104583708D01*
X103548672Y-104581353D01*
X103530772Y-104573362D01*
X103429757Y-104539690D01*
X103420084Y-104537490D01*
X103417643Y-104536479D01*
X103414105Y-104536130D01*
X103410642Y-104535343D01*
X103408007Y-104535530D01*
X103398134Y-104534558D01*
X103330790Y-104534558D01*
X103320916Y-104535530D01*
X103318282Y-104535343D01*
X103314818Y-104536130D01*
X103311281Y-104536479D01*
X103308839Y-104537490D01*
X103299167Y-104539690D01*
X103198152Y-104573362D01*
X103180252Y-104581354D01*
X103177538Y-104583707D01*
X103174217Y-104585083D01*
X103159064Y-104597520D01*
X102889690Y-104866893D01*
X102877254Y-104882047D01*
X102862322Y-104918095D01*
X102681353Y-104918095D01*
X103297869Y-104301579D01*
X103500234Y-104301579D01*
X103509271Y-104339537D01*
X103532146Y-104371146D01*
X103547754Y-104383007D01*
X104423220Y-104921755D01*
X104429584Y-104924856D01*
X104431508Y-104926329D01*
X104433931Y-104926975D01*
X104440842Y-104930343D01*
X104455183Y-104932641D01*
X104469209Y-104936382D01*
X104474296Y-104935706D01*
X104479368Y-104936519D01*
X104493498Y-104933154D01*
X104507887Y-104931243D01*
X104512328Y-104928671D01*
X104517325Y-104927482D01*
X104529089Y-104918968D01*
X104541655Y-104911694D01*
X104544775Y-104907617D01*
X104548935Y-104904607D01*
X104556546Y-104892237D01*
X104565370Y-104880710D01*
X104566692Y-104875751D01*
X104569384Y-104871377D01*
X104571683Y-104857033D01*
X104575423Y-104843009D01*
X104574747Y-104837920D01*
X104575560Y-104832850D01*
X104572197Y-104818729D01*
X104570285Y-104804331D01*
X104567102Y-104797330D01*
X104566522Y-104794893D01*
X104565102Y-104792931D01*
X104562172Y-104786485D01*
X104379671Y-104471256D01*
X104694900Y-104653757D01*
X104701346Y-104656687D01*
X104703308Y-104658107D01*
X104705745Y-104658687D01*
X104712746Y-104661870D01*
X104727144Y-104663782D01*
X104741265Y-104667145D01*
X104746335Y-104666332D01*
X104751424Y-104667008D01*
X104765448Y-104663268D01*
X104779792Y-104660969D01*
X104784166Y-104658277D01*
X104789125Y-104656955D01*
X104800652Y-104648131D01*
X104813022Y-104640520D01*
X104816032Y-104636360D01*
X104820109Y-104633240D01*
X104827383Y-104620674D01*
X104835897Y-104608910D01*
X104837086Y-104603913D01*
X104839658Y-104599472D01*
X104841569Y-104585083D01*
X104844934Y-104570953D01*
X104844121Y-104565881D01*
X104844797Y-104560794D01*
X104841056Y-104546768D01*
X104838758Y-104532427D01*
X104835390Y-104525516D01*
X104834744Y-104523093D01*
X104833271Y-104521169D01*
X104830170Y-104514805D01*
X104291422Y-103639339D01*
X104279561Y-103623731D01*
X104247952Y-103600856D01*
X104209994Y-103591819D01*
X104171468Y-103597995D01*
X104138238Y-103618444D01*
X104115363Y-103650053D01*
X104106326Y-103688011D01*
X104112502Y-103726537D01*
X104121090Y-103744159D01*
X104452136Y-104282109D01*
X104155344Y-104110282D01*
X104150896Y-104108260D01*
X104149361Y-104107085D01*
X104146819Y-104106407D01*
X104137498Y-104102170D01*
X104124410Y-104100431D01*
X104111661Y-104097031D01*
X104105240Y-104097884D01*
X104098819Y-104097031D01*
X104086069Y-104100431D01*
X104072982Y-104102170D01*
X104067373Y-104105416D01*
X104061119Y-104107085D01*
X104050641Y-104115104D01*
X104039215Y-104121720D01*
X104035278Y-104126863D01*
X104030135Y-104130800D01*
X104023519Y-104142226D01*
X104015500Y-104152704D01*
X104013831Y-104158958D01*
X104010585Y-104164567D01*
X104008846Y-104177654D01*
X104005446Y-104190404D01*
X104006299Y-104196825D01*
X104005446Y-104203246D01*
X104008846Y-104215995D01*
X104010585Y-104229083D01*
X104014822Y-104238404D01*
X104015500Y-104240946D01*
X104016675Y-104242481D01*
X104018697Y-104246929D01*
X104190524Y-104543721D01*
X103652574Y-104212675D01*
X103634952Y-104204087D01*
X103596426Y-104197911D01*
X103558468Y-104206948D01*
X103526859Y-104229823D01*
X103506410Y-104263053D01*
X103500234Y-104301579D01*
X103297869Y-104301579D01*
X104196582Y-103402866D01*
X104377551Y-103402866D01*
X104377551Y-103441884D01*
X104392483Y-103477932D01*
X104404919Y-103493086D01*
X105112026Y-104200193D01*
X105127179Y-104212630D01*
X105163227Y-104227561D01*
X105202245Y-104227561D01*
X105238294Y-104212630D01*
X105265884Y-104185040D01*
X105280815Y-104148991D01*
X105280815Y-104109973D01*
X105265884Y-104073925D01*
X105253447Y-104058772D01*
X104987440Y-103792764D01*
X105048273Y-103731932D01*
X105569419Y-103823899D01*
X105588965Y-103825398D01*
X105627059Y-103816958D01*
X105659024Y-103794582D01*
X105679993Y-103761678D01*
X105686774Y-103723254D01*
X105678334Y-103685159D01*
X105655959Y-103653194D01*
X105623054Y-103632225D01*
X105604176Y-103626943D01*
X105209261Y-103557252D01*
X105210261Y-103555013D01*
X105243933Y-103453998D01*
X105246132Y-103444325D01*
X105247144Y-103441884D01*
X105247492Y-103438346D01*
X105248280Y-103434883D01*
X105248092Y-103432248D01*
X105249065Y-103422375D01*
X105249065Y-103355032D01*
X105248092Y-103345158D01*
X105248280Y-103342524D01*
X105247492Y-103339060D01*
X105247144Y-103335523D01*
X105246132Y-103333081D01*
X105243933Y-103323409D01*
X105210261Y-103222393D01*
X105202270Y-103204493D01*
X105199914Y-103201777D01*
X105198540Y-103198459D01*
X105186104Y-103183305D01*
X105085089Y-103082290D01*
X105069935Y-103069854D01*
X105066616Y-103068479D01*
X105063901Y-103066124D01*
X105046001Y-103058133D01*
X104944985Y-103024461D01*
X104935313Y-103022261D01*
X104932871Y-103021250D01*
X104929332Y-103020901D01*
X104925869Y-103020114D01*
X104923235Y-103020301D01*
X104913362Y-103019329D01*
X104846019Y-103019329D01*
X104836145Y-103020301D01*
X104833511Y-103020114D01*
X104830047Y-103020901D01*
X104826510Y-103021250D01*
X104824068Y-103022261D01*
X104814396Y-103024461D01*
X104713381Y-103058133D01*
X104695481Y-103066125D01*
X104692767Y-103068478D01*
X104689446Y-103069854D01*
X104674293Y-103082291D01*
X104404919Y-103351664D01*
X104392483Y-103366818D01*
X104377551Y-103402866D01*
X104196582Y-103402866D01*
X104879691Y-102719757D01*
X105885337Y-103725403D01*
G37*
G36*
X113153676Y-139553126D02*
G01*
X112148012Y-140558789D01*
X111411723Y-139822500D01*
X111744967Y-139822500D01*
X111744967Y-139889843D01*
X111745939Y-139899716D01*
X111745752Y-139902351D01*
X111746539Y-139905814D01*
X111746888Y-139909352D01*
X111747899Y-139911793D01*
X111750099Y-139921466D01*
X111783771Y-140022481D01*
X111791762Y-140040381D01*
X111794117Y-140043096D01*
X111795492Y-140046415D01*
X111807928Y-140061569D01*
X111942615Y-140196256D01*
X111957768Y-140208692D01*
X111961089Y-140210067D01*
X111963803Y-140212421D01*
X111981703Y-140220413D01*
X112082718Y-140254085D01*
X112092390Y-140256284D01*
X112094832Y-140257296D01*
X112098369Y-140257644D01*
X112101833Y-140258432D01*
X112104467Y-140258244D01*
X112114341Y-140259217D01*
X112181685Y-140259217D01*
X112191558Y-140258244D01*
X112194193Y-140258432D01*
X112197656Y-140257644D01*
X112201194Y-140257296D01*
X112203635Y-140256284D01*
X112213308Y-140254085D01*
X112314323Y-140220413D01*
X112332223Y-140212422D01*
X112334938Y-140210066D01*
X112338257Y-140208692D01*
X112353411Y-140196256D01*
X112925830Y-139623837D01*
X112938267Y-139608684D01*
X112953198Y-139572635D01*
X112953198Y-139533617D01*
X112938267Y-139497569D01*
X112910677Y-139469979D01*
X112874629Y-139455048D01*
X112835611Y-139455048D01*
X112799562Y-139469979D01*
X112784409Y-139482416D01*
X112228680Y-140038142D01*
X112165458Y-140059217D01*
X112130568Y-140059217D01*
X112067345Y-140038142D01*
X111966041Y-139936838D01*
X111944967Y-139873615D01*
X111944967Y-139838727D01*
X111966041Y-139775503D01*
X112521769Y-139219776D01*
X112534206Y-139204623D01*
X112549137Y-139168574D01*
X112549137Y-139129556D01*
X112534206Y-139093508D01*
X112506616Y-139065918D01*
X112470568Y-139050987D01*
X112431550Y-139050987D01*
X112395501Y-139065918D01*
X112380348Y-139078355D01*
X111807928Y-139650773D01*
X111795492Y-139665927D01*
X111794117Y-139669245D01*
X111791762Y-139671961D01*
X111783771Y-139689861D01*
X111750099Y-139790877D01*
X111747899Y-139800548D01*
X111746888Y-139802991D01*
X111746539Y-139806529D01*
X111745752Y-139809993D01*
X111745939Y-139812626D01*
X111744967Y-139822500D01*
X111411723Y-139822500D01*
X110685107Y-139095884D01*
X110905095Y-139095884D01*
X110905095Y-139134902D01*
X110920027Y-139170950D01*
X110947617Y-139198540D01*
X110983665Y-139213472D01*
X111022683Y-139213472D01*
X111058731Y-139198540D01*
X111073885Y-139186104D01*
X111514725Y-138745262D01*
X111310759Y-139493142D01*
X111309915Y-139498110D01*
X111309156Y-139499945D01*
X111309156Y-139502587D01*
X111307479Y-139512469D01*
X111309156Y-139525659D01*
X111309156Y-139538963D01*
X111311596Y-139544854D01*
X111312400Y-139551176D01*
X111318997Y-139562721D01*
X111324088Y-139575011D01*
X111328595Y-139579518D01*
X111331758Y-139585053D01*
X111342274Y-139593197D01*
X111351678Y-139602601D01*
X111357565Y-139605039D01*
X111362607Y-139608944D01*
X111375439Y-139612443D01*
X111387726Y-139617533D01*
X111394101Y-139617533D01*
X111400250Y-139619210D01*
X111413441Y-139617533D01*
X111426744Y-139617533D01*
X111432635Y-139615092D01*
X111438957Y-139614289D01*
X111450502Y-139607691D01*
X111462792Y-139602601D01*
X111470543Y-139596239D01*
X111472834Y-139594931D01*
X111474047Y-139593364D01*
X111477946Y-139590165D01*
X112185052Y-138883057D01*
X112197489Y-138867904D01*
X112212420Y-138831856D01*
X112212420Y-138792838D01*
X112197489Y-138756789D01*
X112169899Y-138729199D01*
X112133850Y-138714268D01*
X112094832Y-138714268D01*
X112058784Y-138729199D01*
X112043631Y-138741636D01*
X111602789Y-139182477D01*
X111806756Y-138434598D01*
X111807599Y-138429629D01*
X111808359Y-138427795D01*
X111808359Y-138425152D01*
X111810036Y-138415271D01*
X111808359Y-138402080D01*
X111808359Y-138388777D01*
X111805918Y-138382885D01*
X111805115Y-138376564D01*
X111798520Y-138365024D01*
X111793428Y-138352728D01*
X111788916Y-138348216D01*
X111785757Y-138342687D01*
X111775249Y-138334549D01*
X111765838Y-138325138D01*
X111759945Y-138322697D01*
X111754908Y-138318796D01*
X111742078Y-138315297D01*
X111729789Y-138310207D01*
X111723414Y-138310207D01*
X111717265Y-138308530D01*
X111704074Y-138310207D01*
X111690771Y-138310207D01*
X111684879Y-138312647D01*
X111678558Y-138313451D01*
X111667016Y-138320046D01*
X111654723Y-138325138D01*
X111646971Y-138331500D01*
X111644681Y-138332809D01*
X111643467Y-138334376D01*
X111639570Y-138337575D01*
X110932463Y-139044682D01*
X110920027Y-139059836D01*
X110905095Y-139095884D01*
X110685107Y-139095884D01*
X110045344Y-138456121D01*
X110265331Y-138456121D01*
X110265331Y-138495139D01*
X110280263Y-138531188D01*
X110292699Y-138546341D01*
X110629417Y-138883057D01*
X110644570Y-138895494D01*
X110680619Y-138910425D01*
X110719637Y-138910425D01*
X110755685Y-138895494D01*
X110783275Y-138867904D01*
X110798206Y-138831856D01*
X110798206Y-138792837D01*
X110783275Y-138756789D01*
X110770838Y-138741636D01*
X110504831Y-138475629D01*
X110733799Y-138246662D01*
X110898791Y-138411653D01*
X110913944Y-138424090D01*
X110949993Y-138439021D01*
X110989011Y-138439021D01*
X111025059Y-138424090D01*
X111052649Y-138396500D01*
X111067580Y-138360452D01*
X111067580Y-138321434D01*
X111052649Y-138285385D01*
X111040212Y-138270232D01*
X110875221Y-138105240D01*
X111070516Y-137909944D01*
X111336524Y-138175951D01*
X111351677Y-138188387D01*
X111387725Y-138203319D01*
X111426743Y-138203319D01*
X111462792Y-138188387D01*
X111490381Y-138160798D01*
X111505313Y-138124749D01*
X111505313Y-138085731D01*
X111490381Y-138049683D01*
X111477945Y-138034530D01*
X111141228Y-137697812D01*
X111126074Y-137685376D01*
X111090026Y-137670444D01*
X111051008Y-137670444D01*
X111034259Y-137677382D01*
X111014959Y-137685376D01*
X110999806Y-137697813D01*
X110292699Y-138404919D01*
X110280263Y-138420073D01*
X110265331Y-138456121D01*
X110045344Y-138456121D01*
X109256731Y-137667508D01*
X109276240Y-137647999D01*
X109457209Y-137647999D01*
X109457209Y-137687017D01*
X109472141Y-137723065D01*
X109499731Y-137750655D01*
X109535779Y-137765587D01*
X109574797Y-137765587D01*
X109610845Y-137750655D01*
X109625999Y-137738219D01*
X110014373Y-137349844D01*
X109899042Y-137667005D01*
X109896982Y-137675049D01*
X109895894Y-137677382D01*
X109895792Y-137679699D01*
X109894180Y-137685996D01*
X109894847Y-137701179D01*
X109894180Y-137716362D01*
X109895698Y-137720539D01*
X109895894Y-137724976D01*
X109902318Y-137738742D01*
X109907514Y-137753031D01*
X109910515Y-137756308D01*
X109912394Y-137760334D01*
X109923601Y-137770598D01*
X109933866Y-137781806D01*
X109937891Y-137783684D01*
X109941169Y-137786686D01*
X109955457Y-137791881D01*
X109969224Y-137798306D01*
X109973660Y-137798501D01*
X109977838Y-137800020D01*
X109993021Y-137799352D01*
X110008204Y-137800020D01*
X110014500Y-137798407D01*
X110016818Y-137798306D01*
X110019150Y-137797217D01*
X110027195Y-137795158D01*
X110344357Y-137679826D01*
X109955982Y-138068201D01*
X109943546Y-138083355D01*
X109928614Y-138119403D01*
X109928614Y-138158421D01*
X109943546Y-138194469D01*
X109971136Y-138222059D01*
X110007184Y-138236991D01*
X110046202Y-138236991D01*
X110082250Y-138222059D01*
X110097404Y-138209623D01*
X110804510Y-137502516D01*
X110812686Y-137492554D01*
X110814427Y-137490960D01*
X110814996Y-137489739D01*
X110816947Y-137487363D01*
X110823589Y-137471326D01*
X110830927Y-137455602D01*
X110831024Y-137453373D01*
X110831878Y-137451314D01*
X110831878Y-137433974D01*
X110832641Y-137416622D01*
X110831878Y-137414523D01*
X110831878Y-137412296D01*
X110825242Y-137396276D01*
X110819307Y-137379953D01*
X110817800Y-137378307D01*
X110816947Y-137376248D01*
X110804679Y-137363980D01*
X110792955Y-137351178D01*
X110790933Y-137350234D01*
X110789357Y-137348658D01*
X110773325Y-137342017D01*
X110757597Y-137334678D01*
X110755368Y-137334580D01*
X110753309Y-137333727D01*
X110735969Y-137333727D01*
X110718617Y-137332964D01*
X110715637Y-137333727D01*
X110714291Y-137333727D01*
X110712112Y-137334629D01*
X110699626Y-137337826D01*
X110160230Y-137533969D01*
X110356374Y-136994575D01*
X110359570Y-136982088D01*
X110360473Y-136979910D01*
X110360473Y-136978564D01*
X110361236Y-136975584D01*
X110360473Y-136958231D01*
X110360473Y-136940892D01*
X110359619Y-136938832D01*
X110359522Y-136936604D01*
X110352182Y-136920875D01*
X110345542Y-136904844D01*
X110343965Y-136903267D01*
X110343022Y-136901246D01*
X110330219Y-136889521D01*
X110317952Y-136877254D01*
X110315892Y-136876400D01*
X110314247Y-136874894D01*
X110297923Y-136868958D01*
X110281904Y-136862323D01*
X110279676Y-136862323D01*
X110277578Y-136861560D01*
X110260226Y-136862323D01*
X110242886Y-136862323D01*
X110240826Y-136863176D01*
X110238598Y-136863274D01*
X110222873Y-136870611D01*
X110206837Y-136877254D01*
X110204460Y-136879204D01*
X110203240Y-136879774D01*
X110201645Y-136881514D01*
X110191684Y-136889691D01*
X109484577Y-137596797D01*
X109472141Y-137611951D01*
X109457209Y-137647999D01*
X109276240Y-137647999D01*
X110262395Y-136661844D01*
X113153676Y-139553126D01*
G37*
D10*
X139536779Y-124169819D02*
X139536779Y-123169819D01*
X139536779Y-123169819D02*
X139870112Y-123884104D01*
X139870112Y-123884104D02*
X140203445Y-123169819D01*
X140203445Y-123169819D02*
X140203445Y-124169819D01*
X140679636Y-124169819D02*
X140679636Y-123169819D01*
X140679636Y-123169819D02*
X141060588Y-123169819D01*
X141060588Y-123169819D02*
X141155826Y-123217438D01*
X141155826Y-123217438D02*
X141203445Y-123265057D01*
X141203445Y-123265057D02*
X141251064Y-123360295D01*
X141251064Y-123360295D02*
X141251064Y-123503152D01*
X141251064Y-123503152D02*
X141203445Y-123598390D01*
X141203445Y-123598390D02*
X141155826Y-123646009D01*
X141155826Y-123646009D02*
X141060588Y-123693628D01*
X141060588Y-123693628D02*
X140679636Y-123693628D01*
X141584398Y-123169819D02*
X142203445Y-123169819D01*
X142203445Y-123169819D02*
X141870112Y-123550771D01*
X141870112Y-123550771D02*
X142012969Y-123550771D01*
X142012969Y-123550771D02*
X142108207Y-123598390D01*
X142108207Y-123598390D02*
X142155826Y-123646009D01*
X142155826Y-123646009D02*
X142203445Y-123741247D01*
X142203445Y-123741247D02*
X142203445Y-123979342D01*
X142203445Y-123979342D02*
X142155826Y-124074580D01*
X142155826Y-124074580D02*
X142108207Y-124122200D01*
X142108207Y-124122200D02*
X142012969Y-124169819D01*
X142012969Y-124169819D02*
X141727255Y-124169819D01*
X141727255Y-124169819D02*
X141632017Y-124122200D01*
X141632017Y-124122200D02*
X141584398Y-124074580D01*
X143393922Y-124169819D02*
X143393922Y-123169819D01*
X143393922Y-123169819D02*
X143774874Y-123169819D01*
X143774874Y-123169819D02*
X143870112Y-123217438D01*
X143870112Y-123217438D02*
X143917731Y-123265057D01*
X143917731Y-123265057D02*
X143965350Y-123360295D01*
X143965350Y-123360295D02*
X143965350Y-123503152D01*
X143965350Y-123503152D02*
X143917731Y-123598390D01*
X143917731Y-123598390D02*
X143870112Y-123646009D01*
X143870112Y-123646009D02*
X143774874Y-123693628D01*
X143774874Y-123693628D02*
X143393922Y-123693628D01*
X144536779Y-124169819D02*
X144441541Y-124122200D01*
X144441541Y-124122200D02*
X144393922Y-124026961D01*
X144393922Y-124026961D02*
X144393922Y-123169819D01*
X145346303Y-124169819D02*
X145346303Y-123646009D01*
X145346303Y-123646009D02*
X145298684Y-123550771D01*
X145298684Y-123550771D02*
X145203446Y-123503152D01*
X145203446Y-123503152D02*
X145012970Y-123503152D01*
X145012970Y-123503152D02*
X144917732Y-123550771D01*
X145346303Y-124122200D02*
X145251065Y-124169819D01*
X145251065Y-124169819D02*
X145012970Y-124169819D01*
X145012970Y-124169819D02*
X144917732Y-124122200D01*
X144917732Y-124122200D02*
X144870113Y-124026961D01*
X144870113Y-124026961D02*
X144870113Y-123931723D01*
X144870113Y-123931723D02*
X144917732Y-123836485D01*
X144917732Y-123836485D02*
X145012970Y-123788866D01*
X145012970Y-123788866D02*
X145251065Y-123788866D01*
X145251065Y-123788866D02*
X145346303Y-123741247D01*
X145727256Y-123503152D02*
X145965351Y-124169819D01*
X146203446Y-123503152D02*
X145965351Y-124169819D01*
X145965351Y-124169819D02*
X145870113Y-124407914D01*
X145870113Y-124407914D02*
X145822494Y-124455533D01*
X145822494Y-124455533D02*
X145727256Y-124503152D01*
X146965351Y-124122200D02*
X146870113Y-124169819D01*
X146870113Y-124169819D02*
X146679637Y-124169819D01*
X146679637Y-124169819D02*
X146584399Y-124122200D01*
X146584399Y-124122200D02*
X146536780Y-124026961D01*
X146536780Y-124026961D02*
X146536780Y-123646009D01*
X146536780Y-123646009D02*
X146584399Y-123550771D01*
X146584399Y-123550771D02*
X146679637Y-123503152D01*
X146679637Y-123503152D02*
X146870113Y-123503152D01*
X146870113Y-123503152D02*
X146965351Y-123550771D01*
X146965351Y-123550771D02*
X147012970Y-123646009D01*
X147012970Y-123646009D02*
X147012970Y-123741247D01*
X147012970Y-123741247D02*
X146536780Y-123836485D01*
X147441542Y-124169819D02*
X147441542Y-123503152D01*
X147441542Y-123693628D02*
X147489161Y-123598390D01*
X147489161Y-123598390D02*
X147536780Y-123550771D01*
X147536780Y-123550771D02*
X147632018Y-123503152D01*
X147632018Y-123503152D02*
X147727256Y-123503152D01*
D11*
X108052474Y-122271119D02*
X108623902Y-122271119D01*
X108338188Y-123271119D02*
X108338188Y-122271119D01*
X108909617Y-123223500D02*
X109052474Y-123271119D01*
X109052474Y-123271119D02*
X109290569Y-123271119D01*
X109290569Y-123271119D02*
X109385807Y-123223500D01*
X109385807Y-123223500D02*
X109433426Y-123175880D01*
X109433426Y-123175880D02*
X109481045Y-123080642D01*
X109481045Y-123080642D02*
X109481045Y-122985404D01*
X109481045Y-122985404D02*
X109433426Y-122890166D01*
X109433426Y-122890166D02*
X109385807Y-122842547D01*
X109385807Y-122842547D02*
X109290569Y-122794928D01*
X109290569Y-122794928D02*
X109100093Y-122747309D01*
X109100093Y-122747309D02*
X109004855Y-122699690D01*
X109004855Y-122699690D02*
X108957236Y-122652071D01*
X108957236Y-122652071D02*
X108909617Y-122556833D01*
X108909617Y-122556833D02*
X108909617Y-122461595D01*
X108909617Y-122461595D02*
X108957236Y-122366357D01*
X108957236Y-122366357D02*
X109004855Y-122318738D01*
X109004855Y-122318738D02*
X109100093Y-122271119D01*
X109100093Y-122271119D02*
X109338188Y-122271119D01*
X109338188Y-122271119D02*
X109481045Y-122318738D01*
D12*
G36*
X110045129Y-111705632D02*
G01*
X110112761Y-111773264D01*
X110133836Y-111836487D01*
X110133836Y-111871376D01*
X110112761Y-111934600D01*
X109930789Y-112116571D01*
X109701822Y-111887603D01*
X109883793Y-111705632D01*
X109947017Y-111684558D01*
X109981907Y-111684558D01*
X110045129Y-111705632D01*
G37*
G36*
X110752236Y-110998525D02*
G01*
X110819868Y-111066157D01*
X110840943Y-111129381D01*
X110840943Y-111164269D01*
X110819868Y-111227493D01*
X110637896Y-111409464D01*
X110408929Y-111180496D01*
X110590900Y-110998525D01*
X110654124Y-110977451D01*
X110689013Y-110977451D01*
X110752236Y-110998525D01*
G37*
G36*
X112989875Y-110170900D02*
G01*
X110267508Y-112893267D01*
X109261844Y-111887603D01*
X109281352Y-111868095D01*
X109462322Y-111868095D01*
X109462322Y-111907113D01*
X109477254Y-111943161D01*
X109489690Y-111958315D01*
X110196797Y-112665421D01*
X110211950Y-112677858D01*
X110247999Y-112692789D01*
X110287017Y-112692789D01*
X110323065Y-112677858D01*
X110350655Y-112650268D01*
X110365586Y-112614220D01*
X110365586Y-112575202D01*
X110350655Y-112539153D01*
X110338218Y-112524000D01*
X110072211Y-112257993D01*
X110270874Y-112059330D01*
X110283311Y-112044177D01*
X110284686Y-112040855D01*
X110287040Y-112038142D01*
X110295032Y-112020242D01*
X110328704Y-111919227D01*
X110330903Y-111909554D01*
X110331915Y-111907113D01*
X110332263Y-111903575D01*
X110333051Y-111900112D01*
X110332863Y-111897477D01*
X110333836Y-111887604D01*
X110333836Y-111820260D01*
X110332863Y-111810386D01*
X110333051Y-111807752D01*
X110332263Y-111804288D01*
X110331915Y-111800751D01*
X110330903Y-111798309D01*
X110328704Y-111788637D01*
X110295032Y-111687622D01*
X110287040Y-111669722D01*
X110284686Y-111667008D01*
X110283311Y-111663688D01*
X110270875Y-111648534D01*
X110169860Y-111547519D01*
X110154706Y-111535083D01*
X110151387Y-111533708D01*
X110148672Y-111531353D01*
X110130772Y-111523362D01*
X110029757Y-111489690D01*
X110020084Y-111487490D01*
X110017643Y-111486479D01*
X110014105Y-111486130D01*
X110010642Y-111485343D01*
X110008007Y-111485530D01*
X109998134Y-111484558D01*
X109930790Y-111484558D01*
X109920916Y-111485530D01*
X109918282Y-111485343D01*
X109914818Y-111486130D01*
X109911281Y-111486479D01*
X109908839Y-111487490D01*
X109899167Y-111489690D01*
X109798152Y-111523362D01*
X109780252Y-111531354D01*
X109777538Y-111533707D01*
X109774217Y-111535083D01*
X109759064Y-111547520D01*
X109489690Y-111816893D01*
X109477254Y-111832047D01*
X109462322Y-111868095D01*
X109281352Y-111868095D01*
X109988459Y-111160988D01*
X110169429Y-111160988D01*
X110169429Y-111200006D01*
X110184361Y-111236054D01*
X110196797Y-111251208D01*
X110903904Y-111958315D01*
X110919057Y-111970752D01*
X110955105Y-111985683D01*
X110994123Y-111985683D01*
X111030172Y-111970752D01*
X111057762Y-111943162D01*
X111072693Y-111907113D01*
X111072693Y-111868095D01*
X111057762Y-111832047D01*
X111045325Y-111816894D01*
X110779318Y-111550886D01*
X110840150Y-111490054D01*
X111361297Y-111582021D01*
X111380843Y-111583520D01*
X111418937Y-111575080D01*
X111450902Y-111552704D01*
X111471871Y-111519800D01*
X111478652Y-111481376D01*
X111470212Y-111443281D01*
X111447837Y-111411316D01*
X111414932Y-111390347D01*
X111396054Y-111385065D01*
X111001139Y-111315374D01*
X111002139Y-111313135D01*
X111035811Y-111212120D01*
X111038010Y-111202447D01*
X111039022Y-111200006D01*
X111039370Y-111196468D01*
X111040158Y-111193005D01*
X111039970Y-111190370D01*
X111040943Y-111180497D01*
X111040943Y-111113154D01*
X111039970Y-111103280D01*
X111040158Y-111100646D01*
X111039370Y-111097182D01*
X111039022Y-111093645D01*
X111038010Y-111091203D01*
X111035811Y-111081531D01*
X111002139Y-110980515D01*
X110994148Y-110962615D01*
X110991792Y-110959899D01*
X110990418Y-110956581D01*
X110977982Y-110941427D01*
X110876967Y-110840412D01*
X110861813Y-110827976D01*
X110858494Y-110826601D01*
X110855779Y-110824246D01*
X110837879Y-110816255D01*
X110736863Y-110782583D01*
X110727191Y-110780383D01*
X110724749Y-110779372D01*
X110721210Y-110779023D01*
X110717747Y-110778236D01*
X110715113Y-110778423D01*
X110705240Y-110777451D01*
X110637897Y-110777451D01*
X110628023Y-110778423D01*
X110625389Y-110778236D01*
X110621925Y-110779023D01*
X110618388Y-110779372D01*
X110615946Y-110780383D01*
X110606274Y-110782583D01*
X110505259Y-110816255D01*
X110487359Y-110824247D01*
X110484645Y-110826600D01*
X110481324Y-110827976D01*
X110466171Y-110840413D01*
X110196797Y-111109786D01*
X110184362Y-111124939D01*
X110184361Y-111124940D01*
X110169429Y-111160988D01*
X109988459Y-111160988D01*
X110695566Y-110453881D01*
X110876535Y-110453881D01*
X110876535Y-110492899D01*
X110891467Y-110528947D01*
X110903903Y-110544101D01*
X111611010Y-111251207D01*
X111626163Y-111263644D01*
X111662212Y-111278576D01*
X111701230Y-111278576D01*
X111737278Y-111263644D01*
X111752432Y-111251208D01*
X112089149Y-110914491D01*
X112101586Y-110899338D01*
X112116517Y-110863290D01*
X112116517Y-110824271D01*
X112101586Y-110788223D01*
X112073996Y-110760633D01*
X112037948Y-110745702D01*
X111998930Y-110745702D01*
X111962881Y-110760633D01*
X111947728Y-110773070D01*
X111681720Y-111039075D01*
X111452753Y-110810108D01*
X111617745Y-110645117D01*
X111630181Y-110629963D01*
X111645113Y-110593915D01*
X111645113Y-110554897D01*
X111630181Y-110518849D01*
X111602591Y-110491259D01*
X111566543Y-110476327D01*
X111527525Y-110476327D01*
X111491477Y-110491259D01*
X111476323Y-110503695D01*
X111311331Y-110668686D01*
X111116035Y-110473390D01*
X111382042Y-110207384D01*
X111394479Y-110192231D01*
X111409410Y-110156183D01*
X111409410Y-110117164D01*
X111394479Y-110081116D01*
X111366889Y-110053526D01*
X111330841Y-110038595D01*
X111291823Y-110038595D01*
X111255774Y-110053526D01*
X111240621Y-110065963D01*
X110903903Y-110402679D01*
X110891467Y-110417832D01*
X110891467Y-110417833D01*
X110876535Y-110453881D01*
X110695566Y-110453881D01*
X111202298Y-109947149D01*
X111414148Y-109947149D01*
X111426487Y-109984165D01*
X111452051Y-110013642D01*
X111468642Y-110024085D01*
X112411451Y-110495490D01*
X112429759Y-110502496D01*
X112436886Y-110503002D01*
X112443665Y-110505262D01*
X112456172Y-110504373D01*
X112468679Y-110505262D01*
X112475457Y-110503002D01*
X112482585Y-110502496D01*
X112493803Y-110496886D01*
X112505695Y-110492923D01*
X112511090Y-110488243D01*
X112517484Y-110485047D01*
X112525699Y-110475574D01*
X112535172Y-110467359D01*
X112538368Y-110460965D01*
X112543048Y-110455570D01*
X112547011Y-110443678D01*
X112552621Y-110432460D01*
X112553127Y-110425332D01*
X112555387Y-110418554D01*
X112554498Y-110406047D01*
X112555387Y-110393540D01*
X112553127Y-110386761D01*
X112552621Y-110379634D01*
X112545615Y-110361326D01*
X112074210Y-109418517D01*
X112063767Y-109401926D01*
X112034290Y-109376362D01*
X111997274Y-109364023D01*
X111958354Y-109366789D01*
X111923455Y-109384238D01*
X111897891Y-109413715D01*
X111885552Y-109450731D01*
X111888318Y-109489651D01*
X111895324Y-109507959D01*
X112232564Y-110182439D01*
X111558084Y-109845199D01*
X111539776Y-109838193D01*
X111500856Y-109835427D01*
X111463840Y-109847766D01*
X111434363Y-109873330D01*
X111416914Y-109908229D01*
X111414148Y-109947149D01*
X111202298Y-109947149D01*
X111984211Y-109165236D01*
X112989875Y-110170900D01*
G37*
G36*
X140516617Y-112166065D02*
G01*
X139510953Y-113171729D01*
X138992215Y-112652991D01*
X139212201Y-112652991D01*
X139212201Y-112692009D01*
X139227133Y-112728057D01*
X139254723Y-112755647D01*
X139290771Y-112770579D01*
X139329789Y-112770579D01*
X139365837Y-112755647D01*
X139380991Y-112743211D01*
X140017386Y-112106814D01*
X140148708Y-112238135D01*
X140163861Y-112250572D01*
X140199909Y-112265503D01*
X140238927Y-112265503D01*
X140274976Y-112250572D01*
X140302566Y-112222982D01*
X140317497Y-112186933D01*
X140317497Y-112147915D01*
X140302566Y-112111867D01*
X140290129Y-112096714D01*
X139886068Y-111692652D01*
X139870914Y-111680216D01*
X139834866Y-111665284D01*
X139795848Y-111665284D01*
X139759800Y-111680216D01*
X139732210Y-111707806D01*
X139717278Y-111743854D01*
X139717278Y-111782872D01*
X139732210Y-111818920D01*
X139744646Y-111834074D01*
X139875965Y-111965393D01*
X139239569Y-112601789D01*
X139227133Y-112616943D01*
X139212201Y-112652991D01*
X138992215Y-112652991D01*
X138170034Y-111830811D01*
X138368487Y-111830811D01*
X138376139Y-111869071D01*
X138397850Y-111901491D01*
X138430315Y-111923134D01*
X138468592Y-111930706D01*
X138488099Y-111928764D01*
X138930266Y-111840330D01*
X138841833Y-112282499D01*
X138839891Y-112302006D01*
X138847463Y-112340283D01*
X138869106Y-112372748D01*
X138901526Y-112394459D01*
X138939786Y-112402111D01*
X138978063Y-112394539D01*
X139010528Y-112372896D01*
X139032239Y-112340476D01*
X139037949Y-112321723D01*
X139142725Y-111797838D01*
X139666610Y-111693062D01*
X139685363Y-111687352D01*
X139717783Y-111665641D01*
X139739426Y-111633176D01*
X139746998Y-111594899D01*
X139739346Y-111556639D01*
X139717635Y-111524219D01*
X139685170Y-111502576D01*
X139646893Y-111495004D01*
X139627386Y-111496946D01*
X139185217Y-111585379D01*
X139273651Y-111143211D01*
X139275593Y-111123704D01*
X139268021Y-111085427D01*
X139246378Y-111052962D01*
X139213958Y-111031251D01*
X139175698Y-111023599D01*
X139137421Y-111031171D01*
X139104956Y-111052814D01*
X139083245Y-111085234D01*
X139077535Y-111103987D01*
X138972758Y-111627871D01*
X138448875Y-111732648D01*
X138430122Y-111738358D01*
X138397702Y-111760069D01*
X138376059Y-111792534D01*
X138368487Y-111830811D01*
X138170034Y-111830811D01*
X137578000Y-111238777D01*
X137797988Y-111238777D01*
X137797988Y-111277795D01*
X137812920Y-111313843D01*
X137825356Y-111328997D01*
X138162073Y-111665714D01*
X138177226Y-111678151D01*
X138213274Y-111693082D01*
X138252293Y-111693082D01*
X138288341Y-111678151D01*
X138315931Y-111650561D01*
X138330862Y-111614513D01*
X138330862Y-111575495D01*
X138315931Y-111539446D01*
X138303494Y-111524293D01*
X138037488Y-111258286D01*
X138266455Y-111029318D01*
X138431447Y-111194310D01*
X138446601Y-111206746D01*
X138482649Y-111221678D01*
X138521667Y-111221678D01*
X138557715Y-111206746D01*
X138585305Y-111179156D01*
X138600237Y-111143108D01*
X138600237Y-111104090D01*
X138585305Y-111068042D01*
X138572869Y-111052888D01*
X138407877Y-110887896D01*
X138603173Y-110692600D01*
X138869180Y-110958607D01*
X138884333Y-110971044D01*
X138920381Y-110985975D01*
X138959400Y-110985975D01*
X138995448Y-110971044D01*
X139023038Y-110943454D01*
X139037969Y-110907406D01*
X139037969Y-110868388D01*
X139023038Y-110832339D01*
X139010601Y-110817186D01*
X138673885Y-110480468D01*
X138658732Y-110468032D01*
X138622683Y-110453100D01*
X138583665Y-110453100D01*
X138558174Y-110463658D01*
X138547616Y-110468032D01*
X138532463Y-110480469D01*
X137825356Y-111187575D01*
X137812924Y-111202723D01*
X137812920Y-111202728D01*
X137797988Y-111238777D01*
X137578000Y-111238777D01*
X136856731Y-110517508D01*
X136876240Y-110497999D01*
X137057209Y-110497999D01*
X137057209Y-110537017D01*
X137072141Y-110573065D01*
X137099731Y-110600655D01*
X137135779Y-110615587D01*
X137174797Y-110615587D01*
X137210845Y-110600655D01*
X137225999Y-110588219D01*
X137666840Y-110147376D01*
X137462873Y-110895257D01*
X137462029Y-110900225D01*
X137461270Y-110902060D01*
X137461270Y-110904702D01*
X137459593Y-110914584D01*
X137461270Y-110927774D01*
X137461270Y-110941078D01*
X137463710Y-110946969D01*
X137464514Y-110953291D01*
X137471111Y-110964836D01*
X137476202Y-110977126D01*
X137480709Y-110981633D01*
X137483872Y-110987168D01*
X137494388Y-110995312D01*
X137503792Y-111004716D01*
X137509679Y-111007154D01*
X137514721Y-111011059D01*
X137527553Y-111014558D01*
X137539840Y-111019648D01*
X137546215Y-111019648D01*
X137552364Y-111021325D01*
X137565555Y-111019648D01*
X137578858Y-111019648D01*
X137584749Y-111017207D01*
X137591071Y-111016404D01*
X137602616Y-111009806D01*
X137614906Y-111004716D01*
X137622657Y-110998354D01*
X137624948Y-110997046D01*
X137626161Y-110995479D01*
X137630060Y-110992280D01*
X138337166Y-110285173D01*
X138349603Y-110270020D01*
X138364534Y-110233971D01*
X138364534Y-110194953D01*
X138349603Y-110158905D01*
X138322013Y-110131315D01*
X138285965Y-110116384D01*
X138246947Y-110116384D01*
X138210898Y-110131315D01*
X138195745Y-110143752D01*
X137754903Y-110584592D01*
X137958871Y-109836713D01*
X137959714Y-109831740D01*
X137960473Y-109829910D01*
X137960473Y-109827273D01*
X137962151Y-109817386D01*
X137960473Y-109804187D01*
X137960473Y-109790892D01*
X137958034Y-109785003D01*
X137957230Y-109778679D01*
X137950631Y-109767131D01*
X137945542Y-109754844D01*
X137941034Y-109750336D01*
X137937872Y-109744802D01*
X137927355Y-109736657D01*
X137917952Y-109727254D01*
X137912064Y-109724815D01*
X137907023Y-109720911D01*
X137894185Y-109717409D01*
X137881904Y-109712323D01*
X137875533Y-109712323D01*
X137869380Y-109710645D01*
X137856181Y-109712323D01*
X137842886Y-109712323D01*
X137836997Y-109714761D01*
X137830673Y-109715566D01*
X137819128Y-109722162D01*
X137806837Y-109727254D01*
X137799083Y-109733617D01*
X137796796Y-109734925D01*
X137795583Y-109736490D01*
X137791684Y-109739691D01*
X137084577Y-110446797D01*
X137072141Y-110461951D01*
X137057209Y-110497999D01*
X136876240Y-110497999D01*
X137862395Y-109511844D01*
X140516617Y-112166065D01*
G37*
D13*
%TO.C,SW302*%
X142000000Y-112242641D02*
X143944544Y-110298097D01*
X146242641Y-108000000D02*
X145181981Y-109060660D01*
X142000000Y-103757359D02*
X146242641Y-108000000D01*
X137757359Y-108000000D02*
X142000000Y-103757359D01*
X142000000Y-112242641D02*
X137757359Y-108000000D01*
D14*
X144262742Y-111535534D02*
G75*
G02*
X143979898Y-111535534I-141422J0D01*
G01*
X143979898Y-111535534D02*
G75*
G02*
X144262742Y-111535534I141422J0D01*
G01*
D13*
X143820711Y-108070711D02*
G75*
G02*
X140320711Y-108070711I-1750000J0D01*
G01*
X140320711Y-108070711D02*
G75*
G02*
X143820711Y-108070711I1750000J0D01*
G01*
D15*
%TO.C,U201*%
X113601885Y-118164124D02*
X113478141Y-118287868D01*
X113601885Y-118835876D02*
X113435715Y-118669706D01*
X115914124Y-115851885D02*
X116250000Y-115516009D01*
X116250000Y-115516009D02*
X116585876Y-115851885D01*
X116250000Y-121483991D02*
X115914124Y-121148115D01*
X116585876Y-121148115D02*
X116250000Y-121483991D01*
X118898115Y-118835876D02*
X119233991Y-118500000D01*
X119233991Y-118500000D02*
X118898115Y-118164124D01*
X113266009Y-118500000D02*
X112862959Y-118436360D01*
X113202370Y-118096949D01*
X113266009Y-118500000D01*
G36*
X113266009Y-118500000D02*
G01*
X112862959Y-118436360D01*
X113202370Y-118096949D01*
X113266009Y-118500000D01*
G37*
%TO.C,Q301*%
X120940000Y-145355000D02*
X120940000Y-144705000D01*
X120940000Y-145355000D02*
X120940000Y-146005000D01*
X124060000Y-145355000D02*
X124060000Y-144705000D01*
X124060000Y-145355000D02*
X124060000Y-146005000D01*
X124340000Y-144432500D02*
X124010000Y-144192500D01*
X124340000Y-143952500D01*
X124340000Y-144432500D01*
G36*
X124340000Y-144432500D02*
G01*
X124010000Y-144192500D01*
X124340000Y-143952500D01*
X124340000Y-144432500D01*
G37*
%TO.C,R209*%
X111752035Y-126410564D02*
X111969316Y-126193283D01*
X112289436Y-126947965D02*
X112506717Y-126730684D01*
%TO.C,Q305*%
X105500000Y-124190000D02*
X104850000Y-124190000D01*
X105500000Y-124190000D02*
X106150000Y-124190000D01*
X105500000Y-127310000D02*
X104850000Y-127310000D01*
X105500000Y-127310000D02*
X106150000Y-127310000D01*
X104337500Y-124240000D02*
X104097500Y-123910000D01*
X104577500Y-123910000D01*
X104337500Y-124240000D01*
G36*
X104337500Y-124240000D02*
G01*
X104097500Y-123910000D01*
X104577500Y-123910000D01*
X104337500Y-124240000D01*
G37*
%TO.C,C112*%
X133069190Y-123528307D02*
X133221693Y-123680810D01*
X133578307Y-123019190D02*
X133730810Y-123171693D01*
%TO.C,R308*%
X110987659Y-125649940D02*
X111204940Y-125432659D01*
X111525060Y-126187341D02*
X111742341Y-125970060D01*
%TO.C,U203*%
X140500000Y-128440000D02*
X139700000Y-128440000D01*
X140500000Y-128440000D02*
X141300000Y-128440000D01*
X140500000Y-131560000D02*
X139700000Y-131560000D01*
X140500000Y-131560000D02*
X141300000Y-131560000D01*
X139200000Y-128490000D02*
X138960000Y-128160000D01*
X139440000Y-128160000D01*
X139200000Y-128490000D01*
G36*
X139200000Y-128490000D02*
G01*
X138960000Y-128160000D01*
X139440000Y-128160000D01*
X139200000Y-128490000D01*
G37*
%TO.C,C302*%
X127632164Y-139270000D02*
X127847836Y-139270000D01*
X127632164Y-139990000D02*
X127847836Y-139990000D01*
%TO.C,C214*%
X136515000Y-129738748D02*
X136515000Y-130261252D01*
X137985000Y-129738748D02*
X137985000Y-130261252D01*
%TO.C,R201*%
X125237258Y-110077500D02*
X124762742Y-110077500D01*
X125237258Y-111122500D02*
X124762742Y-111122500D01*
%TO.C,R307*%
X122663727Y-118193554D02*
X122446446Y-117976273D01*
X123201128Y-117656153D02*
X122983847Y-117438872D01*
%TO.C,C109*%
X130694190Y-125953307D02*
X130846693Y-126105810D01*
X131203307Y-125444190D02*
X131355810Y-125596693D01*
%TO.C,C105*%
X119144190Y-123771693D02*
X119296693Y-123619190D01*
X119653307Y-124280810D02*
X119805810Y-124128307D01*
%TO.C,C111*%
X118111104Y-122605810D02*
X117958601Y-122453307D01*
X118620221Y-122096693D02*
X118467718Y-121944190D01*
%TO.C,C209*%
X111863781Y-117010030D02*
X111664970Y-116811219D01*
X112585030Y-116288781D02*
X112386219Y-116089970D01*
%TO.C,R208*%
X114789940Y-123472659D02*
X114572659Y-123689940D01*
X115327341Y-124010060D02*
X115110060Y-124227341D01*
%TO.C,R305*%
X121814940Y-119027341D02*
X121597659Y-118810060D01*
X122352341Y-118489940D02*
X122135060Y-118272659D01*
%TO.C,R303*%
X133018727Y-126822624D02*
X132801446Y-127039905D01*
X133556128Y-127360025D02*
X133338847Y-127577306D01*
%TO.C,R306*%
X123514940Y-117352341D02*
X123297659Y-117135060D01*
X124052341Y-116814940D02*
X123835060Y-116597659D01*
%TO.C,C115*%
X126463781Y-118760030D02*
X126264970Y-118561219D01*
X127185030Y-118038781D02*
X126986219Y-117839970D01*
%TO.C,R103*%
X132870000Y-105163641D02*
X132870000Y-104856359D01*
X133630000Y-105163641D02*
X133630000Y-104856359D01*
D13*
%TO.C,D101*%
X134000000Y-102510000D02*
G75*
G02*
X133900000Y-102510000I-50000J0D01*
G01*
X133900000Y-102510000D02*
G75*
G02*
X134000000Y-102510000I50000J0D01*
G01*
D15*
%TO.C,C103*%
X128821693Y-127269190D02*
X128669190Y-127421693D01*
X129330810Y-127778307D02*
X129178307Y-127930810D01*
%TO.C,C304*%
X132415580Y-139140000D02*
X132134420Y-139140000D01*
X132415580Y-140160000D02*
X132134420Y-140160000D01*
%TO.C,C107*%
X133771693Y-126130810D02*
X133619190Y-125978307D01*
X134280810Y-125621693D02*
X134128307Y-125469190D01*
%TO.C,C217*%
X110265000Y-129738748D02*
X110265000Y-130261252D01*
X111735000Y-129738748D02*
X111735000Y-130261252D01*
%TO.C,C114*%
X131964970Y-130411219D02*
X132163781Y-130610030D01*
X132686219Y-129689970D02*
X132885030Y-129888781D01*
%TO.C,C406*%
X129363781Y-121185030D02*
X129164970Y-120986219D01*
X130085030Y-120463781D02*
X129886219Y-120264970D01*
%TO.C,C104*%
X123696693Y-130780810D02*
X123544190Y-130628307D01*
X124205810Y-130271693D02*
X124053307Y-130119190D01*
%TO.C,C215*%
X143015000Y-129738748D02*
X143015000Y-130261252D01*
X144485000Y-129738748D02*
X144485000Y-130261252D01*
%TO.C,R217*%
X109164940Y-118952341D02*
X108947659Y-118735060D01*
X109702341Y-118414940D02*
X109485060Y-118197659D01*
%TO.C,R203*%
X113797659Y-122889940D02*
X114014940Y-122672659D01*
X114335060Y-123427341D02*
X114552341Y-123210060D01*
D13*
%TO.C,SW304*%
X109820711Y-107929289D02*
G75*
G02*
X106320711Y-107929289I-1750000J0D01*
G01*
X106320711Y-107929289D02*
G75*
G02*
X109820711Y-107929289I1750000J0D01*
G01*
D14*
X113515434Y-105737258D02*
G75*
G02*
X113232590Y-105737258I-141422J0D01*
G01*
X113232590Y-105737258D02*
G75*
G02*
X113515434Y-105737258I141422J0D01*
G01*
D13*
X112242641Y-108000000D02*
X108000000Y-112242641D01*
X103757359Y-108000000D01*
X108000000Y-103757359D01*
X112242641Y-108000000D01*
D15*
%TO.C,L201*%
X113411289Y-112761827D02*
X115688173Y-110484943D01*
X117965057Y-112761827D02*
X115688173Y-115038711D01*
%TO.C,R310*%
X122139940Y-112797659D02*
X121922659Y-113014940D01*
X122677341Y-113335060D02*
X122460060Y-113552341D01*
%TO.C,C407*%
X130271693Y-120080810D02*
X130119190Y-119928307D01*
X130780810Y-119571693D02*
X130628307Y-119419190D01*
%TO.C,R210*%
X112527035Y-127210564D02*
X112744316Y-126993283D01*
X113064436Y-127747965D02*
X113281717Y-127530684D01*
%TO.C,R204*%
X111772659Y-120864940D02*
X111989940Y-120647659D01*
X112310060Y-121402341D02*
X112527341Y-121185060D01*
D13*
%TO.C,D102*%
X131600000Y-102510000D02*
G75*
G02*
X131500000Y-102510000I-50000J0D01*
G01*
X131500000Y-102510000D02*
G75*
G02*
X131600000Y-102510000I50000J0D01*
G01*
D15*
%TO.C,C101*%
X123113781Y-132185030D02*
X122914970Y-131986219D01*
X123835030Y-131463781D02*
X123636219Y-131264970D01*
%TO.C,R311*%
X124620000Y-146878641D02*
X124620000Y-146571359D01*
X125380000Y-146878641D02*
X125380000Y-146571359D01*
%TO.C,U101*%
X119894689Y-125000000D02*
X120230565Y-124664124D01*
X120230565Y-125335876D02*
X119894689Y-125000000D01*
X124664124Y-129769435D02*
X124787868Y-129893179D01*
X125000000Y-119894689D02*
X124664124Y-120230565D01*
X125335876Y-120230565D02*
X125000000Y-119894689D01*
X125335876Y-129769435D02*
X125169706Y-129935605D01*
X129769435Y-124664124D02*
X130105311Y-125000000D01*
X130105311Y-125000000D02*
X129769435Y-125335876D01*
X124936360Y-130508362D02*
X124596949Y-130168951D01*
X125000000Y-130105311D01*
X124936360Y-130508362D01*
G36*
X124936360Y-130508362D02*
G01*
X124596949Y-130168951D01*
X125000000Y-130105311D01*
X124936360Y-130508362D01*
G37*
%TO.C,R216*%
X132222659Y-124285060D02*
X132439940Y-124502341D01*
X132760060Y-123747659D02*
X132977341Y-123964940D01*
%TO.C,C213*%
X139859420Y-132990000D02*
X140140580Y-132990000D01*
X139859420Y-134010000D02*
X140140580Y-134010000D01*
%TO.C,Q303*%
X105500000Y-117190000D02*
X104850000Y-117190000D01*
X105500000Y-117190000D02*
X106150000Y-117190000D01*
X105500000Y-120310000D02*
X104850000Y-120310000D01*
X105500000Y-120310000D02*
X106150000Y-120310000D01*
X104337500Y-117240000D02*
X104097500Y-116910000D01*
X104577500Y-116910000D01*
X104337500Y-117240000D01*
G36*
X104337500Y-117240000D02*
G01*
X104097500Y-116910000D01*
X104577500Y-116910000D01*
X104337500Y-117240000D01*
G37*
%TO.C,Y101*%
X127484207Y-132197487D02*
X129902513Y-134615793D01*
X129902513Y-134615793D02*
X132815793Y-131702513D01*
%TO.C,C110*%
X119080480Y-121682023D02*
X118927977Y-121529520D01*
X119589597Y-121172906D02*
X119437094Y-121020403D01*
%TO.C,C401*%
X129658781Y-116860030D02*
X129459970Y-116661219D01*
X130380030Y-116138781D02*
X130181219Y-115939970D01*
%TO.C,TP201*%
X107935051Y-120725000D02*
X108925000Y-119735051D01*
X108925000Y-119735051D02*
X109914949Y-120725000D01*
X108925000Y-121714949D02*
X107935051Y-120725000D01*
X109914949Y-120725000D02*
X108925000Y-121714949D01*
%TO.C,C206*%
X119845543Y-112290010D02*
X120215010Y-111920543D01*
X120884990Y-113329457D02*
X121254457Y-112959990D01*
%TO.C,C212*%
X139859420Y-134990000D02*
X140140580Y-134990000D01*
X139859420Y-136010000D02*
X140140580Y-136010000D01*
%TO.C,U204*%
X107750000Y-128440000D02*
X106950000Y-128440000D01*
X107750000Y-128440000D02*
X108550000Y-128440000D01*
X107750000Y-131560000D02*
X106950000Y-131560000D01*
X107750000Y-131560000D02*
X108550000Y-131560000D01*
X106450000Y-128490000D02*
X106210000Y-128160000D01*
X106690000Y-128160000D01*
X106450000Y-128490000D01*
G36*
X106450000Y-128490000D02*
G01*
X106210000Y-128160000D01*
X106690000Y-128160000D01*
X106450000Y-128490000D01*
G37*
%TO.C,R214*%
X131739940Y-122347659D02*
X131522659Y-122564940D01*
X132277341Y-122885060D02*
X132060060Y-123102341D01*
%TO.C,J101*%
X115405923Y-132600000D02*
X115854936Y-132150987D01*
X115854936Y-133049013D02*
X115405923Y-132600000D01*
%TO.C,R314*%
X102620000Y-125658859D02*
X102620000Y-125966141D01*
X103380000Y-125658859D02*
X103380000Y-125966141D01*
%TO.C,C303*%
X120021693Y-120730810D02*
X119869190Y-120578307D01*
X120530810Y-120221693D02*
X120378307Y-120069190D01*
%TO.C,U202*%
X123437500Y-104980000D02*
X123437500Y-104180000D01*
X123437500Y-104980000D02*
X123437500Y-105780000D01*
X126557500Y-104980000D02*
X126557500Y-104180000D01*
X126557500Y-104980000D02*
X126557500Y-105780000D01*
X123487500Y-106280000D02*
X123157500Y-106520000D01*
X123157500Y-106040000D01*
X123487500Y-106280000D01*
G36*
X123487500Y-106280000D02*
G01*
X123157500Y-106520000D01*
X123157500Y-106040000D01*
X123487500Y-106280000D01*
G37*
%TO.C,C204*%
X113844190Y-114678307D02*
X113996693Y-114830810D01*
X114353307Y-114169190D02*
X114505810Y-114321693D01*
%TO.C,C201*%
X125465000Y-112142164D02*
X125465000Y-112357836D01*
X126185000Y-112142164D02*
X126185000Y-112357836D01*
%TO.C,C205*%
X117865010Y-115929457D02*
X117495543Y-115559990D01*
X118904457Y-114890010D02*
X118534990Y-114520543D01*
%TO.C,C208*%
X118373792Y-110811761D02*
X118743259Y-110442294D01*
X119413239Y-111851208D02*
X119782706Y-111481741D01*
%TO.C,R309*%
X106620000Y-120308859D02*
X106620000Y-120616141D01*
X107380000Y-120308859D02*
X107380000Y-120616141D01*
D14*
%TO.C,SW303*%
X105878680Y-136625988D02*
G75*
G02*
X105595836Y-136625988I-141422J0D01*
G01*
X105595836Y-136625988D02*
G75*
G02*
X105878680Y-136625988I141422J0D01*
G01*
D13*
X109679289Y-141929289D02*
G75*
G02*
X106179289Y-141929289I-1750000J0D01*
G01*
X106179289Y-141929289D02*
G75*
G02*
X109679289Y-141929289I1750000J0D01*
G01*
X112242641Y-142000000D02*
X108000000Y-146242641D01*
X103757359Y-142000000D01*
X108000000Y-137757359D01*
X112242641Y-142000000D01*
D15*
%TO.C,U401*%
X131101885Y-118164124D02*
X130978141Y-118287868D01*
X131101885Y-118835876D02*
X130935715Y-118669706D01*
X133414124Y-115851885D02*
X133750000Y-115516009D01*
X133750000Y-115516009D02*
X134085876Y-115851885D01*
X133750000Y-121483991D02*
X133414124Y-121148115D01*
X134085876Y-121148115D02*
X133750000Y-121483991D01*
X136398115Y-118835876D02*
X136733991Y-118500000D01*
X136733991Y-118500000D02*
X136398115Y-118164124D01*
X130766009Y-118500000D02*
X130362959Y-118436360D01*
X130702370Y-118096949D01*
X130766009Y-118500000D01*
G36*
X130766009Y-118500000D02*
G01*
X130362959Y-118436360D01*
X130702370Y-118096949D01*
X130766009Y-118500000D01*
G37*
%TO.C,C203*%
X111313781Y-119214970D02*
X111114970Y-119413781D01*
X112035030Y-119936219D02*
X111836219Y-120135030D01*
%TO.C,C113*%
X128065773Y-134662022D02*
X127866962Y-134463211D01*
X128787022Y-133940773D02*
X128588211Y-133741962D01*
D14*
%TO.C,SW301*%
X136767410Y-144262742D02*
G75*
G02*
X136484566Y-144262742I-141422J0D01*
G01*
X136484566Y-144262742D02*
G75*
G02*
X136767410Y-144262742I141422J0D01*
G01*
D13*
X143679289Y-142070711D02*
G75*
G02*
X140179289Y-142070711I-1750000J0D01*
G01*
X140179289Y-142070711D02*
G75*
G02*
X143679289Y-142070711I1750000J0D01*
G01*
X146242641Y-142000000D02*
X142000000Y-146242641D01*
X137757359Y-142000000D01*
X142000000Y-137757359D01*
X146242641Y-142000000D01*
D15*
%TO.C,C301*%
X127569420Y-140420000D02*
X127850580Y-140420000D01*
X127569420Y-141440000D02*
X127850580Y-141440000D01*
%TO.C,U301*%
X123865000Y-137100000D02*
X123865000Y-136300000D01*
X123865000Y-137100000D02*
X123865000Y-137900000D01*
X126985000Y-137100000D02*
X126985000Y-136300000D01*
X126985000Y-137100000D02*
X126985000Y-137900000D01*
X123915000Y-138400000D02*
X123585000Y-138640000D01*
X123585000Y-138160000D01*
X123915000Y-138400000D01*
G36*
X123915000Y-138400000D02*
G01*
X123585000Y-138640000D01*
X123585000Y-138160000D01*
X123915000Y-138400000D01*
G37*
%TO.C,C403*%
X134419190Y-121771693D02*
X134571693Y-121619190D01*
X134928307Y-122280810D02*
X135080810Y-122128307D01*
%TO.C,D302*%
X115850000Y-142900000D02*
X115850000Y-140900000D01*
X115850000Y-142900000D02*
X119050000Y-142900000D01*
X116150000Y-140600000D02*
X115850000Y-140900000D01*
X116150000Y-140600000D02*
X119050000Y-140600000D01*
X119050000Y-140600000D02*
X119050000Y-142900000D01*
%TO.C,R313*%
X102620000Y-118941141D02*
X102620000Y-118633859D01*
X103380000Y-118941141D02*
X103380000Y-118633859D01*
%TO.C,Q302*%
X125940000Y-145262500D02*
X125940000Y-144612500D01*
X125940000Y-145262500D02*
X125940000Y-145912500D01*
X129060000Y-145262500D02*
X129060000Y-144612500D01*
X129060000Y-145262500D02*
X129060000Y-145912500D01*
X129340000Y-144340000D02*
X129010000Y-144100000D01*
X129340000Y-143860000D01*
X129340000Y-144340000D01*
G36*
X129340000Y-144340000D02*
G01*
X129010000Y-144100000D01*
X129340000Y-143860000D01*
X129340000Y-144340000D01*
G37*
%TO.C,C216*%
X103765000Y-129738748D02*
X103765000Y-130261252D01*
X105235000Y-129738748D02*
X105235000Y-130261252D01*
%TO.C,R102*%
X128439940Y-129396133D02*
X128104407Y-129731666D01*
X129178867Y-130135060D02*
X128843334Y-130470593D01*
%TO.C,C102*%
X125846693Y-130269190D02*
X125694190Y-130421693D01*
X126355810Y-130778307D02*
X126203307Y-130930810D01*
%TO.C,R304*%
X131664940Y-125352341D02*
X131447659Y-125135060D01*
X132202341Y-124814940D02*
X131985060Y-124597659D01*
%TO.C,Q304*%
X105500000Y-120690000D02*
X104850000Y-120690000D01*
X105500000Y-120690000D02*
X106150000Y-120690000D01*
X105500000Y-123810000D02*
X104850000Y-123810000D01*
X105500000Y-123810000D02*
X106150000Y-123810000D01*
X104337500Y-120740000D02*
X104097500Y-120410000D01*
X104577500Y-120410000D01*
X104337500Y-120740000D01*
G36*
X104337500Y-120740000D02*
G01*
X104097500Y-120410000D01*
X104577500Y-120410000D01*
X104337500Y-120740000D01*
G37*
%TO.C,R202*%
X110472659Y-117260060D02*
X110689940Y-117477341D01*
X111010060Y-116722659D02*
X111227341Y-116939940D01*
D16*
%TO.C,G\u002A\u002A\u002A*%
G36*
X145653824Y-118190733D02*
G01*
X145681561Y-118299834D01*
X145621892Y-118440868D01*
X145512790Y-118468605D01*
X145371756Y-118408935D01*
X145344020Y-118299834D01*
X145403689Y-118158800D01*
X145512790Y-118131063D01*
X145653824Y-118190733D01*
G37*
G36*
X144667750Y-116784421D02*
G01*
X144869336Y-116800649D01*
X144970101Y-116838070D01*
X145003994Y-116905170D01*
X145006478Y-116949668D01*
X145034784Y-117060084D01*
X145149192Y-117108883D01*
X145344020Y-117118439D01*
X145564852Y-117132592D01*
X145662451Y-117189795D01*
X145681561Y-117287209D01*
X145741231Y-117428243D01*
X145850332Y-117455980D01*
X145991366Y-117515650D01*
X146019103Y-117624751D01*
X146078772Y-117765785D01*
X146187873Y-117793522D01*
X146328907Y-117853191D01*
X146356644Y-117962292D01*
X146416314Y-118103326D01*
X146525415Y-118131063D01*
X146619677Y-118149537D01*
X146670611Y-118230691D01*
X146691083Y-118413120D01*
X146694186Y-118637375D01*
X146688028Y-118920161D01*
X146660977Y-119072964D01*
X146600167Y-119134380D01*
X146525415Y-119143688D01*
X146384381Y-119203357D01*
X146356644Y-119312459D01*
X146328338Y-119422875D01*
X146213931Y-119471674D01*
X146019103Y-119481229D01*
X145798271Y-119495382D01*
X145700672Y-119552586D01*
X145681561Y-119650000D01*
X145667467Y-119734089D01*
X145602553Y-119784485D01*
X145452870Y-119809677D01*
X145184469Y-119818150D01*
X145006478Y-119818771D01*
X144670123Y-119822294D01*
X144468537Y-119838523D01*
X144367772Y-119875944D01*
X144333879Y-119943044D01*
X144331395Y-119987542D01*
X144391065Y-120128576D01*
X144500166Y-120156312D01*
X144610582Y-120184618D01*
X144659381Y-120299026D01*
X144668937Y-120493854D01*
X144654784Y-120714686D01*
X144597580Y-120812285D01*
X144500166Y-120831395D01*
X144359132Y-120891065D01*
X144331395Y-121000166D01*
X144271726Y-121141200D01*
X144162624Y-121168937D01*
X144021590Y-121109267D01*
X143993854Y-121000166D01*
X143934184Y-120859132D01*
X143825083Y-120831395D01*
X143684049Y-120771726D01*
X143656312Y-120662625D01*
X143637838Y-120568363D01*
X143556684Y-120517429D01*
X143374255Y-120496957D01*
X143150000Y-120493854D01*
X142867214Y-120500012D01*
X142714412Y-120527063D01*
X142652996Y-120587873D01*
X142643687Y-120662625D01*
X142584018Y-120803659D01*
X142474917Y-120831395D01*
X142333883Y-120891065D01*
X142306146Y-121000166D01*
X142246476Y-121141200D01*
X142137375Y-121168937D01*
X141996341Y-121228606D01*
X141968604Y-121337708D01*
X142028274Y-121478742D01*
X142137375Y-121506478D01*
X142231637Y-121524953D01*
X142282571Y-121606106D01*
X142303043Y-121788536D01*
X142306146Y-122012791D01*
X142306146Y-122519103D01*
X141799834Y-122519103D01*
X141517048Y-122512945D01*
X141364245Y-122485894D01*
X141302829Y-122425084D01*
X141293521Y-122350332D01*
X141233852Y-122209298D01*
X141124751Y-122181562D01*
X140983717Y-122121892D01*
X140955980Y-122012791D01*
X140896310Y-121871757D01*
X140787209Y-121844020D01*
X140646175Y-121784351D01*
X140618438Y-121675249D01*
X140558769Y-121534215D01*
X140449667Y-121506478D01*
X140308634Y-121446809D01*
X140280897Y-121337708D01*
X140221227Y-121196674D01*
X140112126Y-121168937D01*
X139971092Y-121109267D01*
X139943355Y-121000166D01*
X139883686Y-120859132D01*
X139774584Y-120831395D01*
X139633551Y-120771726D01*
X139605814Y-120662625D01*
X139943355Y-120662625D01*
X140003025Y-120803659D01*
X140112126Y-120831395D01*
X140253160Y-120891065D01*
X140280897Y-121000166D01*
X140340566Y-121141200D01*
X140449667Y-121168937D01*
X140590701Y-121228606D01*
X140618438Y-121337708D01*
X140678108Y-121478742D01*
X140787209Y-121506478D01*
X140928243Y-121566148D01*
X140955980Y-121675249D01*
X141015649Y-121816283D01*
X141124751Y-121844020D01*
X141265784Y-121903689D01*
X141293521Y-122012791D01*
X141321827Y-122123207D01*
X141436235Y-122172006D01*
X141631063Y-122181562D01*
X141968604Y-122181562D01*
X141968604Y-121844020D01*
X141954451Y-121623188D01*
X141897248Y-121525589D01*
X141799834Y-121506478D01*
X141658800Y-121446809D01*
X141631063Y-121337708D01*
X141690732Y-121196674D01*
X141799834Y-121168937D01*
X141940868Y-121109267D01*
X141968604Y-121000166D01*
X142028274Y-120859132D01*
X142137375Y-120831395D01*
X142278409Y-120771726D01*
X142306146Y-120662625D01*
X142365815Y-120521591D01*
X142474917Y-120493854D01*
X142615951Y-120434184D01*
X142643687Y-120325083D01*
X142662162Y-120230821D01*
X142743315Y-120179887D01*
X142925745Y-120159415D01*
X143150000Y-120156312D01*
X143432785Y-120162470D01*
X143585588Y-120189522D01*
X143647004Y-120250331D01*
X143656312Y-120325083D01*
X143715981Y-120466117D01*
X143825083Y-120493854D01*
X143966117Y-120553523D01*
X143993854Y-120662625D01*
X144053523Y-120803659D01*
X144162624Y-120831395D01*
X144273040Y-120803090D01*
X144321840Y-120688682D01*
X144331395Y-120493854D01*
X144317242Y-120273022D01*
X144260038Y-120175423D01*
X144162624Y-120156312D01*
X144021590Y-120096643D01*
X143993854Y-119987542D01*
X144053523Y-119846508D01*
X144162624Y-119818771D01*
X144303658Y-119759101D01*
X144331395Y-119650000D01*
X144345489Y-119565911D01*
X144410403Y-119515515D01*
X144560087Y-119490323D01*
X144828487Y-119481850D01*
X145006478Y-119481229D01*
X145342834Y-119477706D01*
X145544419Y-119461477D01*
X145645184Y-119424056D01*
X145679077Y-119356956D01*
X145681561Y-119312459D01*
X145709867Y-119202043D01*
X145824275Y-119153243D01*
X146019103Y-119143688D01*
X146356644Y-119143688D01*
X146356644Y-118637375D01*
X146356644Y-118131063D01*
X146019103Y-118131063D01*
X145681561Y-118131063D01*
X145681561Y-117793522D01*
X145681561Y-117455980D01*
X145344020Y-117455980D01*
X145123188Y-117441827D01*
X145025589Y-117384623D01*
X145006478Y-117287209D01*
X144992384Y-117203121D01*
X144927470Y-117152724D01*
X144777787Y-117127533D01*
X144509386Y-117119060D01*
X144331395Y-117118439D01*
X143995040Y-117121962D01*
X143793454Y-117138191D01*
X143692689Y-117175612D01*
X143658796Y-117242712D01*
X143656312Y-117287209D01*
X143637838Y-117381471D01*
X143556684Y-117432405D01*
X143374255Y-117452877D01*
X143150000Y-117455980D01*
X142867214Y-117449822D01*
X142714412Y-117422771D01*
X142652996Y-117361961D01*
X142643687Y-117287209D01*
X142615382Y-117176793D01*
X142500974Y-117127994D01*
X142306146Y-117118439D01*
X142085314Y-117132592D01*
X141987715Y-117189795D01*
X141968604Y-117287209D01*
X142028274Y-117428243D01*
X142137375Y-117455980D01*
X142278409Y-117515650D01*
X142306146Y-117624751D01*
X142365815Y-117765785D01*
X142474917Y-117793522D01*
X142585333Y-117821828D01*
X142634132Y-117936235D01*
X142643687Y-118131063D01*
X142629534Y-118351895D01*
X142572331Y-118449494D01*
X142474917Y-118468605D01*
X142364501Y-118496911D01*
X142315701Y-118611318D01*
X142306146Y-118806146D01*
X142291993Y-119026978D01*
X142234789Y-119124577D01*
X142137375Y-119143688D01*
X141996341Y-119203357D01*
X141968604Y-119312459D01*
X141908935Y-119453492D01*
X141799834Y-119481229D01*
X141689418Y-119509535D01*
X141640618Y-119623943D01*
X141631063Y-119818771D01*
X141616910Y-120039603D01*
X141559706Y-120137202D01*
X141462292Y-120156312D01*
X141321258Y-120215982D01*
X141293521Y-120325083D01*
X141233852Y-120466117D01*
X141124751Y-120493854D01*
X140983717Y-120553523D01*
X140955980Y-120662625D01*
X140896310Y-120803659D01*
X140787209Y-120831395D01*
X140646175Y-120771726D01*
X140618438Y-120662625D01*
X140590132Y-120552209D01*
X140475725Y-120503409D01*
X140280897Y-120493854D01*
X140060065Y-120508007D01*
X139962466Y-120565211D01*
X139943355Y-120662625D01*
X139605814Y-120662625D01*
X139665483Y-120521591D01*
X139774584Y-120493854D01*
X139915618Y-120434184D01*
X139943355Y-120325083D01*
X139971661Y-120214667D01*
X140086069Y-120165868D01*
X140280897Y-120156312D01*
X140501729Y-120170465D01*
X140599328Y-120227669D01*
X140618438Y-120325083D01*
X140678108Y-120466117D01*
X140787209Y-120493854D01*
X140928243Y-120434184D01*
X140955980Y-120325083D01*
X141015649Y-120184049D01*
X141124751Y-120156312D01*
X141235167Y-120128006D01*
X141283966Y-120013599D01*
X141293521Y-119818771D01*
X141307674Y-119597939D01*
X141364878Y-119500340D01*
X141462292Y-119481229D01*
X141603326Y-119421560D01*
X141631063Y-119312459D01*
X141690732Y-119171425D01*
X141799834Y-119143688D01*
X141910250Y-119115382D01*
X141959049Y-119000974D01*
X141968604Y-118806146D01*
X141982757Y-118585314D01*
X142039961Y-118487715D01*
X142137375Y-118468605D01*
X142247791Y-118440299D01*
X142296591Y-118325891D01*
X142306146Y-118131063D01*
X142291993Y-117910231D01*
X142234789Y-117812632D01*
X142137375Y-117793522D01*
X141996341Y-117733852D01*
X141968604Y-117624751D01*
X141908935Y-117483717D01*
X141799834Y-117455980D01*
X141658800Y-117396311D01*
X141631063Y-117287209D01*
X141690732Y-117146175D01*
X141799834Y-117118439D01*
X141940868Y-117058769D01*
X141968604Y-116949668D01*
X141996910Y-116839252D01*
X142111318Y-116790452D01*
X142306146Y-116780897D01*
X142526978Y-116795050D01*
X142624577Y-116852254D01*
X142643687Y-116949668D01*
X142662162Y-117043930D01*
X142743315Y-117094864D01*
X142925745Y-117115336D01*
X143150000Y-117118439D01*
X143432785Y-117112281D01*
X143585588Y-117085229D01*
X143647004Y-117024420D01*
X143656312Y-116949668D01*
X143670406Y-116865579D01*
X143735320Y-116815183D01*
X143885004Y-116789991D01*
X144153404Y-116781518D01*
X144331395Y-116780897D01*
X144667750Y-116784421D01*
G37*
D15*
%TO.C,R302*%
X120989940Y-136827341D02*
X120772659Y-136610060D01*
X121527341Y-136289940D02*
X121310060Y-136072659D01*
%TO.C,C404*%
X135589970Y-122188781D02*
X135788781Y-121989970D01*
X136311219Y-122910030D02*
X136510030Y-122711219D01*
%TO.C,R206*%
X130620000Y-105153641D02*
X130620000Y-104846359D01*
X131380000Y-105153641D02*
X131380000Y-104846359D01*
%TO.C,C106*%
X125919190Y-119778307D02*
X126071693Y-119930810D01*
X126428307Y-119269190D02*
X126580810Y-119421693D01*
%TO.C,C405*%
X128690773Y-118262022D02*
X128491962Y-118063211D01*
X129412022Y-117540773D02*
X129213211Y-117341962D01*
%TO.C,C211*%
X112926693Y-115937156D02*
X112727882Y-115738345D01*
X113647942Y-115215907D02*
X113449131Y-115017096D01*
%TO.C,R315*%
X106620000Y-123908859D02*
X106620000Y-124216141D01*
X107380000Y-123908859D02*
X107380000Y-124216141D01*
%TO.C,R215*%
X122432659Y-134920060D02*
X122649940Y-135137341D01*
X122970060Y-134382659D02*
X123187341Y-134599940D01*
%TO.C,R213*%
X123499940Y-134307341D02*
X123282659Y-134090060D01*
X124037341Y-133769940D02*
X123820060Y-133552659D01*
%TO.C,R312*%
X129570000Y-143953641D02*
X129570000Y-143646359D01*
X130330000Y-143953641D02*
X130330000Y-143646359D01*
%TO.C,R301*%
X123003641Y-139695000D02*
X122696359Y-139695000D01*
X123003641Y-140455000D02*
X122696359Y-140455000D01*
%TO.C,R104*%
X131870000Y-105163641D02*
X131870000Y-104856359D01*
X132630000Y-105163641D02*
X132630000Y-104856359D01*
%TO.C,C202*%
X123815000Y-112142164D02*
X123815000Y-112357836D01*
X124535000Y-112142164D02*
X124535000Y-112357836D01*
%TO.C,R205*%
X118620000Y-105153641D02*
X118620000Y-104846359D01*
X119380000Y-105153641D02*
X119380000Y-104846359D01*
%TO.C,D301*%
X130650000Y-142900000D02*
X130650000Y-140900000D01*
X130650000Y-142900000D02*
X133850000Y-142900000D01*
X130950000Y-140600000D02*
X130650000Y-140900000D01*
X130950000Y-140600000D02*
X133850000Y-140600000D01*
X133850000Y-140600000D02*
X133850000Y-142900000D01*
%TO.C,FB201*%
X136940000Y-134899622D02*
X136940000Y-134100378D01*
X138060000Y-134899622D02*
X138060000Y-134100378D01*
%TO.C,R207*%
X109722659Y-117990060D02*
X109939940Y-118207341D01*
X110260060Y-117452659D02*
X110477341Y-117669940D01*
%TO.C,C207*%
X116945543Y-109340010D02*
X117315010Y-108970543D01*
X117984990Y-110379457D02*
X118354457Y-110009990D01*
%TO.C,R212*%
X113302035Y-127985564D02*
X113519316Y-127768283D01*
X113839436Y-128522965D02*
X114056717Y-128305684D01*
%TO.C,C305*%
X117615580Y-139165000D02*
X117334420Y-139165000D01*
X117615580Y-140185000D02*
X117334420Y-140185000D01*
%TO.C,C210*%
X119920543Y-116265010D02*
X120290010Y-115895543D01*
X120959990Y-117304457D02*
X121329457Y-116934990D01*
%TO.C,C402*%
X130511693Y-115650810D02*
X130359190Y-115498307D01*
X131020810Y-115141693D02*
X130868307Y-114989190D01*
%TO.C,R211*%
X114062659Y-128749940D02*
X114279940Y-128532659D01*
X114600060Y-129287341D02*
X114817341Y-129070060D01*
%TO.C,R101*%
X121819940Y-135997341D02*
X121602659Y-135780060D01*
X122357341Y-135459940D02*
X122140060Y-135242659D01*
%TO.C,U403*%
X145146913Y-112646913D02*
X144581228Y-113212599D01*
X145146913Y-112646913D02*
X145712599Y-112081228D01*
X147353087Y-114853087D02*
X146787401Y-115418772D01*
X147353087Y-114853087D02*
X147918772Y-114287401D01*
X144263030Y-113601508D02*
X143859979Y-113537868D01*
X144199390Y-113198457D01*
X144263030Y-113601508D01*
G36*
X144263030Y-113601508D02*
G01*
X143859979Y-113537868D01*
X144199390Y-113198457D01*
X144263030Y-113601508D01*
G37*
%TO.C,C108*%
X132058601Y-126282282D02*
X132211104Y-126129779D01*
X132567718Y-126791399D02*
X132720221Y-126638896D01*
%TD*%
M02*
