%TF.GenerationSoftware,KiCad,Pcbnew,9.0.2*%
%TF.CreationDate,2026-04-27T15:32:34-04:00*%
%TF.ProjectId,MP3-Player,4d50332d-506c-4617-9965-722e6b696361,rev?*%
%TF.SameCoordinates,Original*%
%TF.FileFunction,Paste,Top*%
%TF.FilePolarity,Positive*%
%FSLAX46Y46*%
G04 Gerber Fmt 4.6, Leading zero omitted, Abs format (unit mm)*
G04 Created by KiCad (PCBNEW 9.0.2) date 2026-04-27 15:32:34*
%MOMM*%
%LPD*%
G01*
G04 APERTURE LIST*
G04 Aperture macros list*
%AMRoundRect*
0 Rectangle with rounded corners*
0 $1 Rounding radius*
0 $2 $3 $4 $5 $6 $7 $8 $9 X,Y pos of 4 corners*
0 Add a 4 corners polygon primitive as box body*
4,1,4,$2,$3,$4,$5,$6,$7,$8,$9,$2,$3,0*
0 Add four circle primitives for the rounded corners*
1,1,$1+$1,$2,$3*
1,1,$1+$1,$4,$5*
1,1,$1+$1,$6,$7*
1,1,$1+$1,$8,$9*
0 Add four rect primitives between the rounded corners*
20,1,$1+$1,$2,$3,$4,$5,0*
20,1,$1+$1,$4,$5,$6,$7,0*
20,1,$1+$1,$6,$7,$8,$9,0*
20,1,$1+$1,$8,$9,$2,$3,0*%
G04 Aperture macros list end*
%ADD10RoundRect,0.165000X0.685894X-0.141421X-0.141421X0.685894X-0.685894X0.141421X0.141421X-0.685894X0*%
%ADD11RoundRect,0.250000X0.000000X-0.360624X0.360624X0.000000X0.000000X0.360624X-0.360624X0.000000X0*%
%ADD12RoundRect,0.062500X-0.220971X-0.309359X0.309359X0.220971X0.220971X0.309359X-0.309359X-0.220971X0*%
%ADD13RoundRect,0.062500X0.220971X-0.309359X0.309359X-0.220971X-0.220971X0.309359X-0.309359X0.220971X0*%
%ADD14RoundRect,0.150000X-0.150000X0.587500X-0.150000X-0.587500X0.150000X-0.587500X0.150000X0.587500X0*%
%ADD15RoundRect,0.135000X0.035355X-0.226274X0.226274X-0.035355X-0.035355X0.226274X-0.226274X0.035355X0*%
%ADD16RoundRect,0.150000X-0.587500X-0.150000X0.587500X-0.150000X0.587500X0.150000X-0.587500X0.150000X0*%
%ADD17RoundRect,0.140000X-0.219203X-0.021213X-0.021213X-0.219203X0.219203X0.021213X0.021213X0.219203X0*%
%ADD18RoundRect,0.150000X-0.512500X-0.150000X0.512500X-0.150000X0.512500X0.150000X-0.512500X0.150000X0*%
%ADD19RoundRect,0.140000X-0.140000X-0.170000X0.140000X-0.170000X0.140000X0.170000X-0.140000X0.170000X0*%
%ADD20RoundRect,0.250000X-0.475000X0.250000X-0.475000X-0.250000X0.475000X-0.250000X0.475000X0.250000X0*%
%ADD21RoundRect,0.200000X0.200000X0.275000X-0.200000X0.275000X-0.200000X-0.275000X0.200000X-0.275000X0*%
%ADD22RoundRect,0.135000X0.226274X0.035355X0.035355X0.226274X-0.226274X-0.035355X-0.035355X-0.226274X0*%
%ADD23RoundRect,0.140000X0.021213X-0.219203X0.219203X-0.021213X-0.021213X0.219203X-0.219203X0.021213X0*%
%ADD24RoundRect,0.140000X0.219203X0.021213X0.021213X0.219203X-0.219203X-0.021213X-0.021213X-0.219203X0*%
%ADD25RoundRect,0.225000X0.335876X0.017678X0.017678X0.335876X-0.335876X-0.017678X-0.017678X-0.335876X0*%
%ADD26RoundRect,0.135000X-0.035355X0.226274X-0.226274X0.035355X0.035355X-0.226274X0.226274X-0.035355X0*%
%ADD27RoundRect,0.135000X0.185000X-0.135000X0.185000X0.135000X-0.185000X0.135000X-0.185000X-0.135000X0*%
%ADD28RoundRect,0.147500X-0.172500X0.147500X-0.172500X-0.147500X0.172500X-0.147500X0.172500X0.147500X0*%
%ADD29RoundRect,0.140000X-0.021213X0.219203X-0.219203X0.021213X0.021213X-0.219203X0.219203X-0.021213X0*%
%ADD30RoundRect,0.225000X0.225000X0.250000X-0.225000X0.250000X-0.225000X-0.250000X0.225000X-0.250000X0*%
%ADD31RoundRect,0.225000X-0.335876X-0.017678X-0.017678X-0.335876X0.335876X0.017678X0.017678X0.335876X0*%
%ADD32RoundRect,0.165000X0.141421X0.685894X-0.685894X-0.141421X-0.141421X-0.685894X0.685894X0.141421X0*%
%ADD33RoundRect,0.200000X0.671751X-0.954594X0.954594X-0.671751X-0.671751X0.954594X-0.954594X0.671751X0*%
%ADD34RoundRect,0.250000X0.445477X0.000000X0.000000X0.445477X-0.445477X0.000000X0.000000X-0.445477X0*%
%ADD35RoundRect,0.062500X0.309359X-0.220971X-0.220971X0.309359X-0.309359X0.220971X0.220971X-0.309359X0*%
%ADD36RoundRect,0.062500X0.309359X0.220971X0.220971X0.309359X-0.309359X-0.220971X-0.220971X-0.309359X0*%
%ADD37RoundRect,0.135000X-0.226274X-0.035355X-0.035355X-0.226274X0.226274X0.035355X0.035355X0.226274X0*%
%ADD38RoundRect,0.225000X-0.225000X-0.250000X0.225000X-0.250000X0.225000X0.250000X-0.225000X0.250000X0*%
%ADD39RoundRect,0.250000X-0.070711X-0.565685X0.565685X0.070711X0.070711X0.565685X-0.565685X-0.070711X0*%
%ADD40RoundRect,0.250000X0.159099X-0.512652X0.512652X-0.159099X-0.159099X0.512652X-0.512652X0.159099X0*%
%ADD41RoundRect,0.135000X-0.185000X0.135000X-0.185000X-0.135000X0.185000X-0.135000X0.185000X0.135000X0*%
%ADD42RoundRect,0.150000X0.150000X-0.512500X0.150000X0.512500X-0.150000X0.512500X-0.150000X-0.512500X0*%
%ADD43RoundRect,0.140000X-0.170000X0.140000X-0.170000X-0.140000X0.170000X-0.140000X0.170000X0.140000X0*%
%ADD44RoundRect,0.250000X0.512652X0.159099X0.159099X0.512652X-0.512652X-0.159099X-0.159099X-0.512652X0*%
%ADD45RoundRect,0.165000X-0.685894X0.141421X0.141421X-0.685894X0.685894X-0.141421X-0.141421X0.685894X0*%
%ADD46RoundRect,0.037500X0.123744X0.000000X0.000000X0.123744X-0.123744X0.000000X0.000000X-0.123744X0*%
%ADD47RoundRect,0.037500X0.000000X-0.123744X0.123744X0.000000X0.000000X0.123744X-0.123744X0.000000X0*%
%ADD48RoundRect,0.225000X-0.017678X0.335876X-0.335876X0.017678X0.017678X-0.335876X0.335876X-0.017678X0*%
%ADD49RoundRect,0.165000X-0.141421X-0.685894X0.685894X0.141421X0.141421X0.685894X-0.685894X-0.141421X0*%
%ADD50R,0.700000X0.700000*%
%ADD51RoundRect,0.200000X-0.053033X0.335876X-0.335876X0.053033X0.053033X-0.335876X0.335876X-0.053033X0*%
%ADD52RoundRect,0.225000X0.017678X-0.335876X0.335876X-0.017678X-0.017678X0.335876X-0.335876X0.017678X0*%
%ADD53RoundRect,0.135000X0.135000X0.185000X-0.135000X0.185000X-0.135000X-0.185000X0.135000X-0.185000X0*%
%ADD54RoundRect,0.218750X0.381250X-0.218750X0.381250X0.218750X-0.381250X0.218750X-0.381250X-0.218750X0*%
%ADD55RoundRect,0.150000X-0.256326X-0.468458X0.468458X0.256326X0.256326X0.468458X-0.468458X-0.256326X0*%
G04 APERTURE END LIST*
D10*
%TO.C,SW302*%
X140762563Y-103580583D03*
X146419417Y-109237437D03*
X137580583Y-106762563D03*
X143237437Y-112419417D03*
%TD*%
D11*
%TO.C,U201*%
X115366117Y-118500000D03*
X116250000Y-119383883D03*
X116250000Y-117616117D03*
X117133883Y-118500000D03*
D12*
X113996097Y-118986136D03*
X114349651Y-119339689D03*
X114703204Y-119693243D03*
X115056757Y-120046796D03*
X115410311Y-120400349D03*
X115763864Y-120753903D03*
D13*
X116736136Y-120753903D03*
X117089689Y-120400349D03*
X117443243Y-120046796D03*
X117796796Y-119693243D03*
X118150349Y-119339689D03*
X118503903Y-118986136D03*
D12*
X118503903Y-118013864D03*
X118150349Y-117660311D03*
X117796796Y-117306757D03*
X117443243Y-116953204D03*
X117089689Y-116599651D03*
X116736136Y-116246097D03*
D13*
X115763864Y-116246097D03*
X115410311Y-116599651D03*
X115056757Y-116953204D03*
X114703204Y-117306757D03*
X114349651Y-117660311D03*
X113996097Y-118013864D03*
%TD*%
D14*
%TO.C,Q301*%
X123450000Y-144417500D03*
X121550000Y-144417500D03*
X122500000Y-146292500D03*
%TD*%
D15*
%TO.C,R209*%
X111768752Y-126931248D03*
X112490000Y-126210000D03*
%TD*%
D16*
%TO.C,Q305*%
X104562500Y-124800000D03*
X104562500Y-126700000D03*
X106437500Y-125750000D03*
%TD*%
D17*
%TO.C,C112*%
X133060589Y-123010589D03*
X133739411Y-123689411D03*
%TD*%
D15*
%TO.C,R308*%
X111004376Y-126170623D03*
X111725624Y-125449377D03*
%TD*%
D18*
%TO.C,U203*%
X139362500Y-129050000D03*
X139362500Y-130000000D03*
X139362500Y-130950000D03*
X141637500Y-130950000D03*
X141637500Y-129050000D03*
%TD*%
D19*
%TO.C,C302*%
X127260000Y-139630000D03*
X128220000Y-139630000D03*
%TD*%
D20*
%TO.C,C214*%
X137250000Y-129050000D03*
X137250000Y-130950000D03*
%TD*%
D21*
%TO.C,R201*%
X125825000Y-110600000D03*
X124175000Y-110600000D03*
%TD*%
D22*
%TO.C,R307*%
X123184411Y-118176837D03*
X122463163Y-117455589D03*
%TD*%
D17*
%TO.C,C109*%
X130685589Y-125435589D03*
X131364411Y-126114411D03*
%TD*%
D23*
%TO.C,C105*%
X119135589Y-124289411D03*
X119814411Y-123610589D03*
%TD*%
D24*
%TO.C,C111*%
X118628822Y-122614411D03*
X117950000Y-121935589D03*
%TD*%
D25*
%TO.C,C209*%
X112673008Y-117098008D03*
X111576992Y-116001992D03*
%TD*%
D26*
%TO.C,R208*%
X115310624Y-123489376D03*
X114589376Y-124210624D03*
%TD*%
D22*
%TO.C,R305*%
X122335624Y-119010624D03*
X121614376Y-118289376D03*
%TD*%
D26*
%TO.C,R303*%
X133539411Y-126839341D03*
X132818163Y-127560589D03*
%TD*%
D22*
%TO.C,R306*%
X124035624Y-117335624D03*
X123314376Y-116614376D03*
%TD*%
D25*
%TO.C,C115*%
X127273008Y-118848008D03*
X126176992Y-117751992D03*
%TD*%
D27*
%TO.C,R103*%
X133250000Y-105520000D03*
X133250000Y-104500000D03*
%TD*%
D28*
%TO.C,D101*%
X133250000Y-102525000D03*
X133250000Y-103495000D03*
%TD*%
D29*
%TO.C,C103*%
X129339411Y-127260589D03*
X128660589Y-127939411D03*
%TD*%
D30*
%TO.C,C304*%
X133050000Y-139650000D03*
X131500000Y-139650000D03*
%TD*%
D24*
%TO.C,C107*%
X134289411Y-126139411D03*
X133610589Y-125460589D03*
%TD*%
D20*
%TO.C,C217*%
X111000000Y-129050000D03*
X111000000Y-130950000D03*
%TD*%
D31*
%TO.C,C114*%
X131876992Y-129601992D03*
X132973008Y-130698008D03*
%TD*%
D25*
%TO.C,C406*%
X130173008Y-121273008D03*
X129076992Y-120176992D03*
%TD*%
D24*
%TO.C,C104*%
X124214411Y-130789411D03*
X123535589Y-130110589D03*
%TD*%
D20*
%TO.C,C215*%
X143750000Y-129050000D03*
X143750000Y-130950000D03*
%TD*%
D22*
%TO.C,R217*%
X109685624Y-118935624D03*
X108964376Y-118214376D03*
%TD*%
D15*
%TO.C,R203*%
X113814376Y-123410624D03*
X114535624Y-122689376D03*
%TD*%
D32*
%TO.C,SW304*%
X112419417Y-106762563D03*
X106762563Y-112419417D03*
X109237437Y-103580583D03*
X103580583Y-109237437D03*
%TD*%
D33*
%TO.C,L201*%
X114875000Y-113575000D03*
X116501346Y-111948654D03*
%TD*%
D26*
%TO.C,R310*%
X122660624Y-112814376D03*
X121939376Y-113535624D03*
%TD*%
D24*
%TO.C,C407*%
X130789411Y-120089411D03*
X130110589Y-119410589D03*
%TD*%
D15*
%TO.C,R210*%
X112543752Y-127731248D03*
X113265000Y-127010000D03*
%TD*%
%TO.C,R204*%
X111789376Y-121385624D03*
X112510624Y-120664376D03*
%TD*%
D28*
%TO.C,D102*%
X132250000Y-102525000D03*
X132250000Y-103495000D03*
%TD*%
D25*
%TO.C,C101*%
X123923008Y-132273008D03*
X122826992Y-131176992D03*
%TD*%
D27*
%TO.C,R311*%
X125000000Y-147235000D03*
X125000000Y-146215000D03*
%TD*%
D34*
%TO.C,U101*%
X125000000Y-127969848D03*
X125989949Y-126979899D03*
X126979899Y-125989949D03*
X127969848Y-125000000D03*
X124010051Y-126979899D03*
X125000000Y-125989949D03*
X125989949Y-125000000D03*
X126979899Y-124010051D03*
X123020101Y-125989949D03*
X124010051Y-125000000D03*
X125000000Y-124010051D03*
X125989949Y-123020101D03*
X122030152Y-125000000D03*
X123020101Y-124010051D03*
X124010051Y-123020101D03*
X125000000Y-122030152D03*
D35*
X125486136Y-129375223D03*
X125839689Y-129021670D03*
X126193243Y-128668116D03*
X126546796Y-128314563D03*
X126900349Y-127961010D03*
X127253903Y-127607456D03*
X127607456Y-127253903D03*
X127961010Y-126900349D03*
X128314563Y-126546796D03*
X128668116Y-126193243D03*
X129021670Y-125839689D03*
X129375223Y-125486136D03*
D36*
X129375223Y-124513864D03*
X129021670Y-124160311D03*
X128668116Y-123806757D03*
X128314563Y-123453204D03*
X127961010Y-123099651D03*
X127607456Y-122746097D03*
X127253903Y-122392544D03*
X126900349Y-122038990D03*
X126546796Y-121685437D03*
X126193243Y-121331884D03*
X125839689Y-120978330D03*
X125486136Y-120624777D03*
D35*
X124513864Y-120624777D03*
X124160311Y-120978330D03*
X123806757Y-121331884D03*
X123453204Y-121685437D03*
X123099651Y-122038990D03*
X122746097Y-122392544D03*
X122392544Y-122746097D03*
X122038990Y-123099651D03*
X121685437Y-123453204D03*
X121331884Y-123806757D03*
X120978330Y-124160311D03*
X120624777Y-124513864D03*
D36*
X120624777Y-125486136D03*
X120978330Y-125839689D03*
X121331884Y-126193243D03*
X121685437Y-126546796D03*
X122038990Y-126900349D03*
X122392544Y-127253903D03*
X122746097Y-127607456D03*
X123099651Y-127961010D03*
X123453204Y-128314563D03*
X123806757Y-128668116D03*
X124160311Y-129021670D03*
X124513864Y-129375223D03*
%TD*%
D37*
%TO.C,R216*%
X132239376Y-123764376D03*
X132960624Y-124485624D03*
%TD*%
D38*
%TO.C,C213*%
X139225000Y-133500000D03*
X140775000Y-133500000D03*
%TD*%
D16*
%TO.C,Q303*%
X104562500Y-117800000D03*
X104562500Y-119700000D03*
X106437500Y-118750000D03*
%TD*%
D39*
%TO.C,Y101*%
X129973223Y-133328858D03*
X131528858Y-131773223D03*
X130326777Y-130571142D03*
X128771142Y-132126777D03*
%TD*%
D24*
%TO.C,C110*%
X119598198Y-121690624D03*
X118919376Y-121011802D03*
%TD*%
D25*
%TO.C,C401*%
X130468008Y-116948008D03*
X129371992Y-115851992D03*
%TD*%
D40*
%TO.C,C206*%
X119878249Y-113296751D03*
X121221751Y-111953249D03*
%TD*%
D38*
%TO.C,C212*%
X139225000Y-135500000D03*
X140775000Y-135500000D03*
%TD*%
D18*
%TO.C,U204*%
X106612500Y-129050000D03*
X106612500Y-130000000D03*
X106612500Y-130950000D03*
X108887500Y-130950000D03*
X108887500Y-129050000D03*
%TD*%
D26*
%TO.C,R214*%
X132260624Y-122364376D03*
X131539376Y-123085624D03*
%TD*%
D41*
%TO.C,R314*%
X103000000Y-125302500D03*
X103000000Y-126322500D03*
%TD*%
D24*
%TO.C,C303*%
X120539411Y-120739411D03*
X119860589Y-120060589D03*
%TD*%
D42*
%TO.C,U202*%
X124047500Y-106117500D03*
X124997500Y-106117500D03*
X125947500Y-106117500D03*
X125947500Y-103842500D03*
X124997500Y-103842500D03*
X124047500Y-103842500D03*
%TD*%
D17*
%TO.C,C204*%
X113835589Y-114160589D03*
X114514411Y-114839411D03*
%TD*%
D43*
%TO.C,C201*%
X125825000Y-111770000D03*
X125825000Y-112730000D03*
%TD*%
D44*
%TO.C,C205*%
X118871751Y-115896751D03*
X117528249Y-114553249D03*
%TD*%
D40*
%TO.C,C208*%
X118406498Y-111818502D03*
X119750000Y-110475000D03*
%TD*%
D41*
%TO.C,R309*%
X107000000Y-119952501D03*
X107000000Y-120972499D03*
%TD*%
D45*
%TO.C,SW303*%
X106762563Y-137580583D03*
X112419417Y-143237437D03*
X103580583Y-140762563D03*
X109237437Y-146419417D03*
%TD*%
D11*
%TO.C,U401*%
X132866117Y-118500000D03*
X133750000Y-119383883D03*
X133750000Y-117616117D03*
X134633883Y-118500000D03*
D12*
X131496097Y-118986136D03*
X131849651Y-119339689D03*
X132203204Y-119693243D03*
X132556757Y-120046796D03*
X132910311Y-120400349D03*
X133263864Y-120753903D03*
D13*
X134236136Y-120753903D03*
X134589689Y-120400349D03*
X134943243Y-120046796D03*
X135296796Y-119693243D03*
X135650349Y-119339689D03*
X136003903Y-118986136D03*
D12*
X136003903Y-118013864D03*
X135650349Y-117660311D03*
X135296796Y-117306757D03*
X134943243Y-116953204D03*
X134589689Y-116599651D03*
X134236136Y-116246097D03*
D13*
X133263864Y-116246097D03*
X132910311Y-116599651D03*
X132556757Y-116953204D03*
X132203204Y-117306757D03*
X131849651Y-117660311D03*
X131496097Y-118013864D03*
D46*
X131310482Y-118500000D03*
D47*
X133750000Y-120939518D03*
X136189518Y-118500000D03*
X133750000Y-116060482D03*
%TD*%
D48*
%TO.C,C203*%
X112123008Y-119126992D03*
X111026992Y-120223008D03*
%TD*%
D25*
%TO.C,C113*%
X128875000Y-134750000D03*
X127778984Y-133653984D03*
%TD*%
D49*
%TO.C,SW301*%
X137580583Y-143237437D03*
X143237437Y-137580583D03*
X140762563Y-146419417D03*
X146419417Y-140762563D03*
%TD*%
D38*
%TO.C,C301*%
X126935000Y-140930000D03*
X128485000Y-140930000D03*
%TD*%
D42*
%TO.C,U301*%
X124475000Y-138237500D03*
X125425000Y-138237500D03*
X126375000Y-138237500D03*
X126375000Y-135962500D03*
X125425000Y-135962500D03*
X124475000Y-135962500D03*
%TD*%
D23*
%TO.C,C403*%
X134410589Y-122289411D03*
X135089411Y-121610589D03*
%TD*%
D50*
%TO.C,D302*%
X116535000Y-141200000D03*
X116535000Y-142300000D03*
X118365000Y-142300000D03*
X118365000Y-141200000D03*
%TD*%
D27*
%TO.C,R313*%
X103000000Y-119297500D03*
X103000000Y-118277500D03*
%TD*%
D14*
%TO.C,Q302*%
X128450000Y-144325000D03*
X126550000Y-144325000D03*
X127500000Y-146200000D03*
%TD*%
D20*
%TO.C,C216*%
X104500000Y-129050000D03*
X104500000Y-130950000D03*
%TD*%
D51*
%TO.C,R102*%
X129225000Y-129350000D03*
X128058274Y-130516726D03*
%TD*%
D29*
%TO.C,C102*%
X126364411Y-130260589D03*
X125685589Y-130939411D03*
%TD*%
D22*
%TO.C,R304*%
X132185624Y-125335624D03*
X131464376Y-124614376D03*
%TD*%
D16*
%TO.C,Q304*%
X104562500Y-121300000D03*
X104562500Y-123200000D03*
X106437500Y-122250000D03*
%TD*%
D37*
%TO.C,R202*%
X110489376Y-116739376D03*
X111210624Y-117460624D03*
%TD*%
D22*
%TO.C,R302*%
X121510624Y-136810624D03*
X120789376Y-136089376D03*
%TD*%
D52*
%TO.C,C404*%
X135501992Y-122998008D03*
X136598008Y-121901992D03*
%TD*%
D27*
%TO.C,R206*%
X131000000Y-105510000D03*
X131000000Y-104490000D03*
%TD*%
D17*
%TO.C,C106*%
X125910589Y-119260589D03*
X126589411Y-119939411D03*
%TD*%
D25*
%TO.C,C405*%
X129500000Y-118350000D03*
X128403984Y-117253984D03*
%TD*%
%TO.C,C211*%
X113735920Y-116025134D03*
X112639904Y-114929118D03*
%TD*%
D41*
%TO.C,R315*%
X107000000Y-123552500D03*
X107000000Y-124572500D03*
%TD*%
D37*
%TO.C,R215*%
X122449376Y-134399376D03*
X123170624Y-135120624D03*
%TD*%
D22*
%TO.C,R213*%
X124020624Y-134290624D03*
X123299376Y-133569376D03*
%TD*%
D27*
%TO.C,R312*%
X129950000Y-144310000D03*
X129950000Y-143290000D03*
%TD*%
D53*
%TO.C,R301*%
X123360000Y-140075000D03*
X122340000Y-140075000D03*
%TD*%
D27*
%TO.C,R104*%
X132250000Y-105520000D03*
X132250000Y-104500000D03*
%TD*%
D43*
%TO.C,C202*%
X124175000Y-111770000D03*
X124175000Y-112730000D03*
%TD*%
D27*
%TO.C,R205*%
X119000000Y-105510000D03*
X119000000Y-104490000D03*
%TD*%
D50*
%TO.C,D301*%
X131335000Y-141200000D03*
X131335000Y-142300000D03*
X133165000Y-142300000D03*
X133165000Y-141200000D03*
%TD*%
D54*
%TO.C,FB201*%
X137500000Y-135562500D03*
X137500000Y-133437500D03*
%TD*%
D37*
%TO.C,R207*%
X109739376Y-117469376D03*
X110460624Y-118190624D03*
%TD*%
D40*
%TO.C,C207*%
X116978249Y-110346751D03*
X118321751Y-109003249D03*
%TD*%
D15*
%TO.C,R212*%
X113318752Y-128506248D03*
X114040000Y-127785000D03*
%TD*%
D30*
%TO.C,C305*%
X118250000Y-139675000D03*
X116700000Y-139675000D03*
%TD*%
D40*
%TO.C,C210*%
X119953249Y-117271751D03*
X121296751Y-115928249D03*
%TD*%
D24*
%TO.C,C402*%
X131029411Y-115659411D03*
X130350589Y-114980589D03*
%TD*%
D15*
%TO.C,R211*%
X114079376Y-129270624D03*
X114800624Y-128549376D03*
%TD*%
D22*
%TO.C,R101*%
X122340624Y-135980624D03*
X121619376Y-135259376D03*
%TD*%
D55*
%TO.C,U403*%
X144773915Y-113882583D03*
X145445666Y-114554334D03*
X146117417Y-115226085D03*
X147726085Y-113617417D03*
X147054334Y-112945666D03*
X146382583Y-112273915D03*
%TD*%
D23*
%TO.C,C108*%
X132050000Y-126800000D03*
X132728822Y-126121178D03*
%TD*%
M02*
