M48
; DRILL file {KiCad 9.0.2} date 2026-04-27T15:32:37-0400
; FORMAT={-:-/ absolute / metric / decimal}
; #@! TF.CreationDate,2026-04-27T15:32:37-04:00
; #@! TF.GenerationSoftware,Kicad,Pcbnew,9.0.2
; #@! TF.FileFunction,Plated,1,4,PTH
FMAT,2
METRIC
; #@! TA.AperFunction,Plated,PTH,ViaDrill
T1C0.300
; #@! TA.AperFunction,Plated,PTH,ViaDrill
T2C0.400
; #@! TA.AperFunction,Plated,PTH,ComponentDrill
T3C0.500
; #@! TA.AperFunction,Plated,PTH,ComponentDrill
T4C0.600
%
G90
G05
T1
X102.5Y-102.5
X102.5Y-107.5
X102.5Y-112.5
X102.5Y-132.5
X102.5Y-137.5
X102.5Y-142.5
X102.5Y-147.5
X102.75Y-110.0
X102.75Y-140.0
X103.0Y-117.65
X103.0Y-126.925
X103.55Y-116.675
X103.65Y-118.625
X104.55Y-118.6
X104.55Y-121.925
X105.0Y-105.0
X105.0Y-135.0
X105.0Y-140.0
X105.0Y-145.0
X105.69Y-126.67
X105.75Y-113.5
X105.75Y-114.5
X107.5Y-102.5
X107.75Y-136.75
X108.5Y-126.76
X108.553Y-117.775
X109.0Y-136.75
X109.65Y-126.77
X109.803Y-124.65
X109.907Y-122.89
X109.968Y-116.332
X109.984Y-121.284
X110.0Y-102.75
X110.0Y-135.0
X110.0Y-147.25
X110.147Y-123.782
X110.732Y-122.032
X110.9Y-124.5
X110.976Y-114.375
X111.395Y-113.453
X112.21Y-112.75
X112.5Y-102.5
X112.5Y-147.5
X112.649Y-135.707
X112.65Y-136.825
X113.457Y-123.768
X113.7Y-126.28
X114.244Y-124.556
X114.407Y-130.243
X114.6Y-127.175
X114.975Y-121.9
X115.263Y-118.627
X115.375Y-128.0
X115.375Y-130.175
X115.496Y-127.088
X115.827Y-121.607
X115.965Y-137.1
X116.163Y-119.527
X116.213Y-117.677
X116.247Y-123.129
X116.32Y-147.37
X116.575Y-123.972
X117.113Y-118.577
X117.512Y-122.387
X118.188Y-123.062
X118.374Y-120.383
X118.4Y-121.425
X118.41Y-125.3
X118.708Y-118.764
X119.0Y-103.875
X119.0Y-106.19
X119.116Y-134.44
X119.188Y-121.957
X119.216Y-137.772
X119.511Y-136.921
X119.765Y-118.965
X119.825Y-127.925
X119.871Y-125.285
X120.078Y-120.955
X120.146Y-137.776
X120.153Y-128.951
X120.205Y-119.75
X120.3Y-127.161
X120.725Y-128.0
X120.774Y-122.824
X120.795Y-129.582
X120.975Y-140.075
X121.15Y-118.775
X121.289Y-137.721
X121.374Y-122.153
X121.439Y-130.211
X121.492Y-133.167
X122.0Y-125.0
X122.013Y-133.931
X122.27Y-129.758
X122.428Y-131.725
X122.748Y-133.198
X122.798Y-129.029
X122.954Y-114.55
X122.997Y-116.327
X123.5Y-123.5
X123.5Y-125.0
X123.5Y-126.5
X123.547Y-131.871
X123.582Y-135.532
X123.642Y-113.006
X123.737Y-115.816
X124.083Y-119.905
X124.232Y-107.587
X124.75Y-133.49
X125.0Y-122.0
X125.0Y-123.5
X125.0Y-126.5
X125.0Y-128.0
X125.225Y-131.4
X125.921Y-107.615
X125.925Y-114.581
X125.925Y-115.481
X126.118Y-134.215
X126.48Y-112.75
X126.5Y-123.5
X126.5Y-125.0
X126.5Y-126.5
X126.624Y-116.16
X126.763Y-129.238
X126.919Y-111.718
X126.92Y-110.58
X127.05Y-132.925
X127.91Y-131.66
X128.0Y-125.0
X128.19Y-120.989
X128.318Y-113.95
X128.454Y-121.86
X129.065Y-121.197
X129.093Y-122.493
X129.875Y-127.875
X130.025Y-135.6
X130.234Y-123.634
X130.305Y-124.532
X130.725Y-143.275
X130.775Y-135.025
X130.783Y-127.777
X130.95Y-144.325
X131.0Y-103.875
X131.0Y-106.21
X131.165Y-124.266
X131.197Y-123.366
X131.615Y-128.122
X131.902Y-114.52
X132.25Y-101.875
X132.3Y-132.625
X132.8Y-118.55
X132.84Y-136.72
X133.17Y-144.953
X133.25Y-101.875
X133.25Y-106.05
X133.566Y-129.303
X133.6Y-131.325
X133.675Y-147.365
X133.7Y-119.45
X133.75Y-117.6
X133.97Y-127.186
X134.056Y-123.984
X134.082Y-115.452
X134.13Y-144.93
X134.15Y-106.05
X134.23Y-128.696
X134.23Y-129.911
X134.567Y-125.277
X134.65Y-118.5
X135.0Y-105.0
X135.012Y-126.12
X135.025Y-115.625
X135.8Y-116.4
X136.343Y-120.032
X136.42Y-125.42
X136.43Y-126.55
X136.55Y-117.15
X136.75Y-107.5
X136.75Y-108.5
X136.75Y-141.5
X136.75Y-142.5
X137.5Y-102.5
X138.46Y-113.08
X139.37Y-113.81
X140.0Y-102.75
X140.0Y-120.0
X140.0Y-125.0
X140.0Y-147.25
X140.33Y-107.17
X140.7Y-111.23
X141.67Y-107.2
X142.5Y-102.5
X142.5Y-122.5
X142.5Y-142.5
X142.5Y-147.5
X145.0Y-105.0
X145.0Y-120.0
X145.0Y-125.0
X145.0Y-130.0
X145.0Y-135.0
X145.0Y-140.0
X145.0Y-145.0
X145.69Y-111.42
X145.7Y-110.5
X147.15Y-108.6
X147.25Y-140.0
X147.5Y-107.5
X147.5Y-117.5
X147.5Y-122.5
X147.5Y-127.5
X147.5Y-132.5
X147.5Y-137.5
X147.5Y-142.5
X147.5Y-147.5
T2
X102.91Y-130.28
X102.92Y-129.07
X104.0Y-132.0
X105.0Y-132.0
X106.76Y-132.02
X110.4Y-119.55
X110.5Y-132.0
X110.95Y-115.375
X111.33Y-118.67
X111.5Y-132.0
X111.975Y-114.325
X115.2Y-109.49
X115.22Y-108.18
X115.59Y-142.3
X115.78Y-139.71
X117.0Y-104.75
X117.0Y-105.875
X118.375Y-113.7
X118.675Y-143.7
X118.7Y-107.75
X118.99Y-117.342
X119.4Y-108.45
X119.711Y-117.966
X120.091Y-141.34
X120.1Y-143.275
X120.225Y-109.3
X120.39Y-107.25
X120.95Y-110.0
X121.375Y-107.225
X121.375Y-141.025
X121.7Y-110.8
X122.04Y-115.05
X122.4Y-111.5
X122.46Y-107.6
X123.46Y-111.793
X123.68Y-148.08
X123.99Y-108.525
X124.325Y-139.219
X124.857Y-134.767
X125.0Y-101.5
X125.01Y-102.61
X125.04Y-108.23
X125.425Y-139.25
X125.676Y-144.305
X125.78Y-148.03
X126.19Y-108.526
X126.51Y-139.55
X126.543Y-117.18
X127.173Y-138.572
X127.48Y-143.95
X127.58Y-107.64
X127.84Y-142.82
X128.25Y-138.8
X128.462Y-116.378
X128.8Y-107.125
X129.35Y-138.75
X129.385Y-114.935
X129.4Y-140.93
X129.63Y-112.81
X129.695Y-111.545
X129.875Y-107.125
X130.0Y-145.251
X130.386Y-142.314
X130.45Y-146.707
X130.6Y-139.675
X131.46Y-111.49
X131.49Y-112.82
X136.75Y-132.0
X137.25Y-121.25
X137.75Y-132.0
X137.98Y-124.16
X138.05Y-136.8
X139.25Y-136.8
X142.05Y-111.228
X142.05Y-133.5
X142.1Y-135.5
X143.25Y-132.0
X143.74Y-127.66
X143.743Y-111.228
X144.25Y-132.0
X144.97Y-127.67
X146.121Y-113.869
X148.34Y-112.08
X148.35Y-108.53
T3
X117.25Y-102.5
X117.25Y-103.75
T4
G00X120.68Y-100.975
M15
G01X120.68Y-101.575
M16
G05
G00X120.68Y-104.905
M15
G01X120.68Y-106.005
M16
G05
G00X129.32Y-100.975
M15
G01X129.32Y-101.575
M16
G05
G00X129.32Y-104.905
M15
G01X129.32Y-106.005
M16
G05
M30
